<?xml version="1.0" encoding="UTF-8" standalone="no"?>
<svg
   xmlns:dc="http://purl.org/dc/elements/1.1/"
   xmlns:cc="http://creativecommons.org/ns#"
   xmlns:rdf="http://www.w3.org/1999/02/22-rdf-syntax-ns#"
   xmlns:svg="http://www.w3.org/2000/svg"
   xmlns="http://www.w3.org/2000/svg"
   xml:space="preserve"
   enable-background="new 0 0 100 100"
   viewBox="0 0 78.986 78.986"
   height="78.986"
   width="78.986"
   y="0px"
   x="0px"
   id="Layer_1"
   version="1.1"><metadata
     id="metadata37"><rdf:RDF><cc:Work
         rdf:about=""><dc:format>image/svg+xml</dc:format><dc:type
           rdf:resource="http://purl.org/dc/dcmitype/StillImage" /><dc:title></dc:title></cc:Work></rdf:RDF></metadata><defs
     id="defs35" /><g
     transform="translate(-12.235,-10.108)"
     id="g30"><path
       style="clip-rule:evenodd;fill:#359846;fill-rule:evenodd"
       id="path2"
       d="M 53.854,10.108 C 74.006,11.18 90.15,27.318 91.221,47.471 H 80.548 C 79.513,33.208 68.121,21.817 53.854,20.776 Z" /><path
       style="clip-rule:evenodd;fill:#359846;fill-rule:evenodd"
       id="path4"
       d="M 49.598,89.094 C 29.457,88.02 13.307,71.876 12.235,51.727 h 10.666 c 1.043,14.265 12.437,25.659 26.697,26.702 z" /><path
       style="clip-rule:evenodd;fill:#f79838;fill-rule:evenodd"
       id="path6"
       d="M 12.235,47.471 C 13.307,27.318 29.457,11.18 49.598,10.108 V 20.775 C 35.337,21.816 23.944,33.208 22.901,47.47 H 12.235 Z" /><path
       style="clip-rule:evenodd;fill:#f79838;fill-rule:evenodd"
       id="path8"
       d="M 91.221,51.727 C 90.149,71.876 74.006,88.02 53.854,89.094 V 78.429 C 68.122,77.386 79.513,65.991 80.553,51.727 Z" /><g
       id="g18"><path
         style="clip-rule:evenodd;fill:#359846;fill-rule:evenodd"
         id="path10"
         d="m 34.755,30.687 c 9.641,-8.664 24.304,-8.664 33.94,0 l -4.844,4.847 c -6.949,-6.008 -17.298,-6.008 -24.245,0 z" /><path
         style="clip-rule:evenodd;fill:#359846;fill-rule:evenodd"
         id="path12"
         d="m 68.695,68.504 c -9.632,8.663 -24.299,8.663 -33.94,0 l 4.847,-4.845 c 6.947,6.005 17.3,6.005 24.259,0 z" /><path
         style="clip-rule:evenodd;fill:#f79838;fill-rule:evenodd"
         id="path14"
         d="M 32.821,66.568 C 24.152,56.922 24.161,42.26 32.816,32.623 l 4.849,4.845 c -6.007,6.954 -6.007,17.302 0,24.254 z" /><path
         style="clip-rule:evenodd;fill:#f79838;fill-rule:evenodd"
         id="path16"
         d="m 70.633,32.624 c 8.674,9.642 8.674,24.304 0.005,33.945 l -4.847,-4.846 c 6.004,-6.952 6.004,-17.301 -0.002,-24.254 z" /></g><g
       id="g28"><path
         style="clip-rule:evenodd;fill:#359846;fill-rule:evenodd"
         id="path20"
         d="m 36.13,48.753 c 0.424,-7.962 6.8,-14.334 14.757,-14.757 l 0.005,4.215 c -5.639,0.411 -10.133,4.91 -10.546,10.542 z" /><path
         style="clip-rule:evenodd;fill:#359846;fill-rule:evenodd"
         id="path22"
         d="m 67.329,50.438 c -0.425,7.951 -6.801,14.328 -14.758,14.753 v -4.216 c 5.634,-0.404 10.13,-4.908 10.542,-10.542 z" /><path
         style="clip-rule:evenodd;fill:#f79838;fill-rule:evenodd"
         id="path24"
         d="M 50.892,65.19 C 42.93,64.765 36.554,58.388 36.13,50.437 h 4.215 c 0.409,5.629 4.908,10.133 10.546,10.542 v 4.211 z" /><path
         style="clip-rule:evenodd;fill:#f79838;fill-rule:evenodd"
         id="path26"
         d="m 52.571,33.996 c 7.957,0.423 14.333,6.795 14.758,14.757 H 63.113 C 62.701,43.121 58.205,38.622 52.566,38.206 Z" /></g></g></svg>