<svg xmlns="http://www.w3.org/2000/svg" width="100" height="100"><g fill-rule="evenodd" clip-rule="evenodd"><path fill="#359846" d="M54 10c20 1.3 36 17.4 37 37.6H80.5C79.5 33.2 68 21.8 54 20.8V10zm-4.4 79c-20-1-36.3-17-37.4-37.3H23C24 66 35.2 77.4 49.5 78.4V89z"/><path fill="#F79838" d="M12.2 47.5c1-20.2 17.3-36.3 37.4-37.4v11C35.3 22 24 33.4 23 47.7H12zm79 4.2C90.2 72 74 88 54 89V78.5c14-1 25.5-12.4 26.6-26.7h10.6z"/><path fill="#359846" d="M34.8 30.7c9.6-8.7 24.3-8.7 34 0l-5 4.8c-7-6-17.2-6-24.2 0l-4.8-4.8zm34 37.8c-9.7 8.7-24.4 8.7-34 0l5-4.8c6.7 6 17 6 24 0l4.8 4.8z"/><path fill="#F79838" d="M32.8 66.6c-8.6-9.7-8.6-24.3 0-34l5 5c-6 6.8-6 17.2 0 24l-5 5zm37.8-34c8.7 9.7 8.7 24.3 0 34l-4.8-5c6-6.8 6-17.2 0-24l4.8-5z"/><path fill="#359846" d="M36 48.8c.6-8 7-14.4 15-14.8v4.2c-5.7.4-10.2 5-10.7 10.6H36zm31.3 1.6c-.4 8-6.8 14.4-14.7 14.8V61c5.6-.4 10-5 10.5-10.6h4.6z"/><path fill="#F79838" d="M51 65.2c-8-.4-14.4-6.8-15-14.8h4.3c.5 5.7 5 10.2 10.6 10.6v4.2zM52.6 34c8 .4 14.3 6.8 14.7 14.8H63c-.3-5.7-4.8-10.2-10.4-10.6V34z"/></g></svg>