<svg xmlns="http://www.w3.org/2000/svg" width="79" height="79"><g fill-rule="evenodd" clip-rule="evenodd"><path fill="#359846" d="M41.6 0C61.8 1 78 17.2 79 37.4H68.3C67.3 23 56 11.7 41.6 10.7zm-4.2 79C17.2 78 1 61.8 0 41.6h10.7C11.7 56 23 67.3 37.4 68.3z"/><path fill="#f79838" d="M0 37.4C1 17.2 17.2 1 37.4 0v10.7C23 11.7 11.7 23 10.7 37.4H0zm79 4.2C78 61.8 61.8 78 41.6 79V68.3C56 67.3 67.3 56 68.3 41.6z"/><path fill="#359846" d="M22.5 20.6c9.7-8.7 24.3-8.7 34 0l-5 4.8c-6.8-6-17.2-6-24 0zm34 37.8c-9.7 8.7-24.3 8.7-34 0l5-4.8c6.8 6 17.2 6 24 0z"/><path fill="#f79838" d="M20.6 56.5c-8.7-9.7-8.7-24.3 0-34l4.8 5c-6 6.8-6 17.2 0 24zm37.8-34c8.7 9.7 8.7 24.3 0 34l-4.8-5c6-6.8 6-17.2 0-24z"/><path fill="#359846" d="M24 38.6c.3-8 6.7-14.3 14.7-14.7v4c-5.7.3-10.2 5-10.6 10.4zm31 1.7c-.3 8-6.7 14.4-14.7 14.8v-4c5.7-.3 10.2-5 10.6-10.5z"/><path fill="#f79838" d="M38.7 55c-8-.3-14.4-6.7-14.8-14.7h4c.3 5.7 5 10.2 10.5 10.6v4zm1.6-31c8 .3 14.4 6.7 14.8 14.6h-4c-.3-5.6-5-10-10.5-10.5z"/></g></svg>