<?xml version="1.0" encoding="utf-8"?>
<!-- Generator: Adobe Illustrator 16.0.0, SVG Export Plug-In . SVG Version: 6.00 Build 0)  -->
<!DOCTYPE svg PUBLIC "-//W3C//DTD SVG 1.1//EN" "http://www.w3.org/Graphics/SVG/1.1/DTD/svg11.dtd">
<svg version="1.1" id="Layer_1" xmlns="http://www.w3.org/2000/svg" xmlns:xlink="http://www.w3.org/1999/xlink" x="0px" y="0px"
	 width="100px" height="100px" viewBox="0 0 100 100" enable-background="new 0 0 100 100" xml:space="preserve">
<g>
	<path fill-rule="evenodd" clip-rule="evenodd" fill="#359846" d="M53.854,10.108c20.152,1.072,36.296,17.21,37.367,37.363H80.548
		c-1.035-14.263-12.427-25.654-26.694-26.695V10.108L53.854,10.108z"/>
	<path fill-rule="evenodd" clip-rule="evenodd" fill="#359846" d="M49.598,89.094C29.457,88.02,13.307,71.876,12.235,51.727h10.666
		c1.043,14.265,12.437,25.659,26.697,26.702V89.094L49.598,89.094z"/>
	<path fill-rule="evenodd" clip-rule="evenodd" fill="#F79838" d="M12.235,47.471c1.072-20.153,17.222-36.291,37.363-37.363v10.667
		c-14.261,1.041-25.654,12.433-26.697,26.695H12.235L12.235,47.471z"/>
	<path fill-rule="evenodd" clip-rule="evenodd" fill="#F79838" d="M91.221,51.727C90.149,71.876,74.006,88.02,53.854,89.094V78.429
		c14.268-1.043,25.659-12.438,26.699-26.702H91.221L91.221,51.727z"/>
	<g>
		<path fill-rule="evenodd" clip-rule="evenodd" fill="#359846" d="M34.755,30.687c9.641-8.664,24.304-8.664,33.94,0l-4.844,4.847
			c-6.949-6.008-17.298-6.008-24.245,0L34.755,30.687L34.755,30.687z"/>
		<path fill-rule="evenodd" clip-rule="evenodd" fill="#359846" d="M68.695,68.504c-9.632,8.663-24.299,8.663-33.94,0l4.847-4.845
			c6.947,6.005,17.3,6.005,24.259,0L68.695,68.504L68.695,68.504z"/>
		<path fill-rule="evenodd" clip-rule="evenodd" fill="#F79838" d="M32.821,66.568c-8.669-9.646-8.66-24.308-0.005-33.945
			l4.849,4.845c-6.007,6.954-6.007,17.302,0,24.254L32.821,66.568L32.821,66.568z"/>
		<path fill-rule="evenodd" clip-rule="evenodd" fill="#F79838" d="M70.633,32.624c8.674,9.642,8.674,24.304,0.005,33.945
			l-4.847-4.846c6.004-6.952,6.004-17.301-0.002-24.254L70.633,32.624L70.633,32.624z"/>
	</g>
	<g>
		<path fill-rule="evenodd" clip-rule="evenodd" fill="#359846" d="M36.13,48.753c0.424-7.962,6.8-14.334,14.757-14.757l0.005,4.215
			c-5.639,0.411-10.133,4.91-10.546,10.542H36.13L36.13,48.753z"/>
		<path fill-rule="evenodd" clip-rule="evenodd" fill="#359846" d="M67.329,50.438c-0.425,7.951-6.801,14.328-14.758,14.753v-4.216
			c5.634-0.404,10.13-4.908,10.542-10.542L67.329,50.438L67.329,50.438z"/>
		<path fill-rule="evenodd" clip-rule="evenodd" fill="#F79838" d="M50.892,65.19c-7.962-0.425-14.338-6.802-14.762-14.753h4.215
			c0.409,5.629,4.908,10.133,10.546,10.542V65.19L50.892,65.19z"/>
		<path fill-rule="evenodd" clip-rule="evenodd" fill="#F79838" d="M52.571,33.996c7.957,0.423,14.333,6.795,14.758,14.757h-4.216
			c-0.412-5.632-4.908-10.131-10.547-10.547L52.571,33.996L52.571,33.996z"/>
	</g>
</g>
</svg>
