<svg xmlns="http://www.w3.org/2000/svg" width="942.3" height="769"><defs><clipPath id="a"><path d="M0-.2h793.6V595H0z" clip-rule="evenodd"/></clipPath></defs><g clip-path="url(#a)" transform="matrix(1.33333 0 0 -1.33333 -76.3 780.1)"><path fill="#729fcf" fill-rule="evenodd" d="M399.6 440.7h-342v144h684v-144z"/><path fill="none" stroke="#3465a4" stroke-width=".8" stroke-miterlimit="10" d="M399.6 440.7h-342v144h684v-144z" stroke-linejoin="round"/><path fill="#729fcf" fill-rule="evenodd" d="M399.6 224.7h-342v201.6h684V224.7z"/><path fill="none" stroke="#3465a4" stroke-width=".8" stroke-miterlimit="10" d="M399.6 224.7h-342v201.6h684V224.7z" stroke-linejoin="round"/><path fill="#729fcf" fill-rule="evenodd" d="M399.6 8.7h-342v201.6h684V8.7z"/><path fill="none" stroke="#3465a4" stroke-width=".8" stroke-miterlimit="10" d="M399.6 8.7h-342v201.6h684V8.7z" stroke-linejoin="round"/><path fill="#3465a4" fill-rule="evenodd" d="M367.2 494.2H288v36h158.4v-36z"/><path fill="none" stroke="#004a4a" stroke-width="1.4" stroke-miterlimit="10" d="M367.2 494.2H288v36h158.4v-36z" stroke-linejoin="round"/><text transform="matrix(1 0 0 -1 364.7 505.9)" style="-inkscape-font-specification:LiberationSans" font-size="18" font-family="Liberation Sans"><tspan x="0" y="0">/</tspan></text><path fill="#3465a4" fill-rule="evenodd" d="M597.6 494.2h-79.2v36h158.4v-36z"/><path fill="none" stroke="#004a4a" stroke-width="1.4" stroke-miterlimit="10" d="M597.6 494.2h-79.2v36h158.4v-36z" stroke-linejoin="round"/><text transform="matrix(1 0 0 -1 582.6 505.9)" style="-inkscape-font-specification:LiberationSans" font-size="18" font-family="Liberation Sans"><tspan x="0 5.1 14 24" y="0">/var</tspan></text><text transform="matrix(1 0 0 -1 151.7 506.1)" style="-inkscape-font-specification:LiberationSans" font-size="18" font-family="Liberation Sans"><tspan x="0 11 15 19 28.9 37.9 46.9 55.9 60.9 70.8 85.8" y="0">Filesystems</tspan></text><text transform="matrix(1 0 0 -1 103.5 360.4)" style="-inkscape-font-specification:LiberationSans" font-size="18" font-family="Liberation Sans"><tspan x="0 10 19.9 29.9 33.9 42.9 52.8 56.8 61.8 72.7 82.7 86.6 96.6 111.6 121.6 130.6" y="0">Logical Volumes:</tspan></text><text transform="matrix(1 0 0 -1 103.5 340.3)" style="-inkscape-font-specification:LiberationSans" font-size="18" font-family="Liberation Sans"><tspan x="0 5.1 15 25 34 39 49 52.9 61.9 70.9 76 85.9 94.9 100.9 104.8 114.9" y="0">/dev/disk/by-id/</tspan></text><text transform="matrix(1 0 0 -1 103.7 276.8)" style="-inkscape-font-specification:LiberationSans" font-size="18" font-family="Liberation Sans"><tspan x="0 10 20 29.9 33.9 42.9 52.9 56.8 61.8 73.9 82.8 87.9 97.8 107.8 117.8" y="0">Logical Extends</tspan></text><path fill="#3465a4" fill-rule="evenodd" d="M371.6 342H259.2v28.7H484V342z"/><path fill="none" stroke="#004a4a" stroke-width="1.4" stroke-miterlimit="10" d="M371.6 342H259.2v28.7H484V342z" stroke-linejoin="round"/><text transform="matrix(1 0 0 -1 262.7 350.1)" style="-inkscape-font-specification:LiberationSans" font-size="18" font-family="Liberation Sans"><tspan x="0 5.1 10.1 20.1 35.1 41.1 51 61 76 86 92 101.9 107.9 116.9 126.9 135.9 145.9 151.8 161.8 167.8 176.8 186.8 192.8 202.7 212.7" y="0">./dm-name-archvg-archroot</tspan></text><path fill="#3465a4" fill-rule="evenodd" d="M611 341.5H502v28.8h218v-28.8z"/><path fill="none" stroke="#004a4a" stroke-width="1.4" stroke-miterlimit="10" d="M611 341.5H502v28.8h218v-28.8z" stroke-linejoin="round"/><text transform="matrix(1 0 0 -1 505.1 349.6)" style="-inkscape-font-specification:LiberationSans" font-size="18" font-family="Liberation Sans"><tspan x="0 5.1 10.1 20.1 35.1 41.1 51 61 76 86 92 101.9 107.9 116.9 126.9 135.9 145.8 151.8 161.8 167.8 176.8 186.8 195.8 205.7" y="0">./dm-name-archvg-archvar</tspan></text><path fill="#3465a4" fill-rule="evenodd" d="M364 269.5h-21.7v28.8h43.2v-28.8z"/><path fill="none" stroke="#004a4a" stroke-width="1.4" stroke-miterlimit="10" d="M364 269.5h-21.7v28.8h43.2v-28.8z" stroke-linejoin="round"/><text transform="matrix(1 0 0 -1 352.9 277.6)" style="-inkscape-font-specification:LiberationSans" font-size="18" font-family="Liberation Sans"><tspan x="0 10" y="0">LE</tspan></text><path fill="#3465a4" fill-rule="evenodd" d="M407 269.5h-21.5v28.8h43.2v-28.8z"/><path fill="none" stroke="#004a4a" stroke-width="1.4" stroke-miterlimit="10" d="M407 269.5h-21.5v28.8h43.2v-28.8z" stroke-linejoin="round"/><text transform="matrix(1 0 0 -1 396.1 277.6)" style="-inkscape-font-specification:LiberationSans" font-size="18" font-family="Liberation Sans"><tspan x="0 10" y="0">LE</tspan></text><path fill="#3465a4" fill-rule="evenodd" d="M450.3 269.5h-21.6v28.8H472v-28.8z"/><path fill="none" stroke="#004a4a" stroke-width="1.4" stroke-miterlimit="10" d="M450.3 269.5h-21.6v28.8H472v-28.8z" stroke-linejoin="round"/><text transform="matrix(1 0 0 -1 439.3 277.6)" style="-inkscape-font-specification:LiberationSans" font-size="18" font-family="Liberation Sans"><tspan x="0 10" y="0">LE</tspan></text><path fill="#3465a4" fill-rule="evenodd" d="M528.4 269.5h-21.6v28.8H550v-28.8z"/><path fill="none" stroke="#004a4a" stroke-width="1.4" stroke-miterlimit="10" d="M528.4 269.5h-21.6v28.8H550v-28.8z" stroke-linejoin="round"/><text transform="matrix(1 0 0 -1 517.5 277.6)" style="-inkscape-font-specification:LiberationSans" font-size="18" font-family="Liberation Sans"><tspan x="0 9.9" y="0">LE</tspan></text><path fill="#3465a4" fill-rule="evenodd" d="M571.6 269.5H550v28.8h43.2v-28.8z"/><path fill="none" stroke="#004a4a" stroke-width="1.4" stroke-miterlimit="10" d="M571.6 269.5H550v28.8h43.2v-28.8z" stroke-linejoin="round"/><text transform="matrix(1 0 0 -1 560.7 277.6)" style="-inkscape-font-specification:LiberationSans" font-size="18" font-family="Liberation Sans"><tspan x="0 9.9" y="0">LE</tspan></text><path fill="#3465a4" fill-rule="evenodd" d="M614.8 269.5h-21.6v28.8h43.2v-28.8z"/><path fill="none" stroke="#004a4a" stroke-width="1.4" stroke-miterlimit="10" d="M614.8 269.5h-21.6v28.8h43.2v-28.8z" stroke-linejoin="round"/><text transform="matrix(1 0 0 -1 603.9 277.6)" style="-inkscape-font-specification:LiberationSans" font-size="18" font-family="Liberation Sans"><tspan x="0 9.9" y="0">LE</tspan></text><path fill="#3465a4" fill-rule="evenodd" d="M295.3 129.6h-21.6v28.8H317v-28.8z"/><path fill="none" stroke="#3465a4" stroke-width=".8" stroke-miterlimit="10" d="M295.3 129.6h-21.6v28.8H317v-28.8z" stroke-linejoin="round"/><text transform="matrix(1 0 0 -1 283.3 137.7)" style="-inkscape-font-specification:LiberationSans" font-size="18" font-family="Liberation Sans"><tspan x="0 12" y="0">PE</tspan></text><text transform="matrix(1 0 0 -1 106.2 139.8)" style="-inkscape-font-specification:LiberationSans" font-size="18" font-family="Liberation Sans"><tspan x="0 11.9 21.9 30.9 39.9 43.9 52.9 62.8 66.8 71.8 83.8 92.8 97.8 107.7 117.8 127.8" y="0">Physical Extends</tspan></text><text transform="matrix(1 0 0 -1 105.3 68.1)" style="-inkscape-font-specification:LiberationSans" font-size="18" font-family="Liberation Sans"><tspan x="0 12 21.9 30.9 39.9 43.9 52.9 62.9 66.8 71.9 82.8 92.7 96.7 106.6 121.7 131.6" y="0">Physical Volumes</tspan></text><path fill="#3465a4" fill-rule="evenodd" d="M338.4 129.6h-21.6v28.8H360v-28.8z"/><path fill="none" stroke="#004a4a" stroke-width="1.4" stroke-miterlimit="10" d="M338.4 129.6h-21.6v28.8H360v-28.8z" stroke-linejoin="round"/><text transform="matrix(1 0 0 -1 326.4 137.7)" style="-inkscape-font-specification:LiberationSans" font-size="18" font-family="Liberation Sans"><tspan x="0 12" y="0">PE</tspan></text><path fill="#3465a4" fill-rule="evenodd" d="M381.6 129.6H360v28.8h43.2v-28.8z"/><path fill="none" stroke="#004a4a" stroke-width="1.4" stroke-miterlimit="10" d="M381.6 129.6H360v28.8h43.2v-28.8z" stroke-linejoin="round"/><text transform="matrix(1 0 0 -1 369.6 137.7)" style="-inkscape-font-specification:LiberationSans" font-size="18" font-family="Liberation Sans"><tspan x="0 12" y="0">PE</tspan></text><path fill="#3465a4" fill-rule="evenodd" d="M295.3 129.6h-21.6v28.8H317v-28.8z"/><path fill="none" stroke="#004a4a" stroke-width="1.4" stroke-miterlimit="10" d="M295.3 129.6h-21.6v28.8H317v-28.8z" stroke-linejoin="round"/><text transform="matrix(1 0 0 -1 283.3 137.7)" style="-inkscape-font-specification:LiberationSans" font-size="18" font-family="Liberation Sans"><tspan x="0 12" y="0">PE</tspan></text><path fill="#3465a4" fill-rule="evenodd" d="M496.3 129.6h-21.6v28.8H518v-28.8z"/><path fill="none" stroke="#004a4a" stroke-width="1.4" stroke-miterlimit="10" d="M496.3 129.6h-21.6v28.8H518v-28.8z" stroke-linejoin="round"/><text transform="matrix(1 0 0 -1 484.3 137.7)" style="-inkscape-font-specification:LiberationSans" font-size="18" font-family="Liberation Sans"><tspan x="0 12" y="0">PE</tspan></text><path fill="#3465a4" fill-rule="evenodd" d="M539.5 129.6H518v28.8h43v-28.8z"/><path fill="none" stroke="#004a4a" stroke-width="1.4" stroke-miterlimit="10" d="M539.5 129.6H518v28.8h43v-28.8z" stroke-linejoin="round"/><text transform="matrix(1 0 0 -1 527.5 137.7)" style="-inkscape-font-specification:LiberationSans" font-size="18" font-family="Liberation Sans"><tspan x="0 12" y="0">PE</tspan></text><path fill="#3465a4" fill-rule="evenodd" d="M424.8 129.6h-21.6v28.8h43.2v-28.8z"/><path fill="none" stroke="#004a4a" stroke-width="1.4" stroke-miterlimit="10" d="M424.8 129.6h-21.6v28.8h43.2v-28.8z" stroke-linejoin="round"/><text transform="matrix(1 0 0 -1 412.8 137.7)" style="-inkscape-font-specification:LiberationSans" font-size="18" font-family="Liberation Sans"><tspan x="0 12" y="0">PE</tspan></text><path fill="#3465a4" fill-rule="evenodd" d="M626 129.6h-21.7v28.8h43.2v-28.8z"/><path fill="none" stroke="#004a4a" stroke-width="1.4" stroke-miterlimit="10" d="M626 129.6h-21.7v28.8h43.2v-28.8z" stroke-linejoin="round"/><text transform="matrix(1 0 0 -1 614 137.7)" style="-inkscape-font-specification:LiberationSans" font-size="18" font-family="Liberation Sans"><tspan x="0 11.9" y="0">PE</tspan></text><path fill="#3465a4" fill-rule="evenodd" d="M695.6 129.8H674v28.8h43.2v-28.8z"/><path fill="none" stroke="#004a4a" stroke-width="1.4" stroke-miterlimit="10" d="M695.6 129.8H674v28.8h43.2v-28.8z" stroke-linejoin="round"/><text transform="matrix(1 0 0 -1 683.6 138)" style="-inkscape-font-specification:LiberationSans" font-size="18" font-family="Liberation Sans"><tspan x="0 12" y="0">PE</tspan></text><path fill="#3465a4" fill-rule="evenodd" d="M582.8 129.6h-21.6v28.8h43.2v-28.8z"/><path fill="none" stroke="#004a4a" stroke-width="1.4" stroke-miterlimit="10" d="M582.8 129.6h-21.6v28.8h43.2v-28.8z" stroke-linejoin="round"/><text transform="matrix(1 0 0 -1 570.8 137.7)" style="-inkscape-font-specification:LiberationSans" font-size="18" font-family="Liberation Sans"><tspan x="0 12" y="0">PE</tspan></text><path fill="#3465a4" fill-rule="evenodd" d="M738.8 129.8h-21.6v28.8h43.2v-28.8z"/><path fill="none" stroke="#004a4a" stroke-width="1.4" stroke-miterlimit="10" d="M738.8 129.8h-21.6v28.8h43.2v-28.8z" stroke-linejoin="round"/><text transform="matrix(1 0 0 -1 731.2 138)" style="-inkscape-font-specification:LiberationSans" font-size="18" font-family="Liberation Sans"><tspan x="0 5.1 10.1" y="0">...</tspan></text><path fill="#3465a4" fill-rule="evenodd" d="M360 62.2H259.2V91h201.6V62.2z"/><path fill="none" stroke="#004a4a" stroke-width="1.4" stroke-miterlimit="10" d="M360 62.2H259.2V91h201.6V62.2z" stroke-linejoin="round"/><text transform="matrix(1 0 0 -1 326 70.3)" style="-inkscape-font-specification:LiberationSans" font-size="18" font-family="Liberation Sans"><tspan x="0 5.1 15 25 34 39 48 58" y="0">/dev/sda</tspan></text><path fill="#3465a4" fill-rule="evenodd" d="M567 62.2H466V91h201.7V62.2z"/><path fill="none" stroke="#004a4a" stroke-width="1.4" stroke-miterlimit="10" d="M567 62.2H466V91h201.7V62.2z" stroke-linejoin="round"/><text transform="matrix(1 0 0 -1 533 70.3)" style="-inkscape-font-specification:LiberationSans" font-size="18" font-family="Liberation Sans"><tspan x="0 5 15 24.9 33.9 39 48 57.9" y="0">/dev/sdb</tspan></text><path fill="#3465a4" fill-rule="evenodd" d="M721 62.2h-42.3V91h84.5V62.2z"/><path fill="none" stroke="#004a4a" stroke-width="1.4" stroke-miterlimit="10" d="M721 62.2h-42.3V91h84.5V62.2z" stroke-linejoin="round"/><text transform="matrix(1 0 0 -1 693.9 70.3)" style="-inkscape-font-specification:LiberationSans" font-size="18" font-family="Liberation Sans"><tspan x="0 5.1 15 25 34 39 44 49" y="0">/dev/...</tspan></text><path fill="none" stroke="#000" stroke-width=".7" stroke-miterlimit="10" d="M295.2 158.4l64 98.6" stroke-linejoin="round"/><path fill-rule="evenodd" d="M367.2 269.5l-12.8-10.3 8.7-5.7z"/><path fill="none" stroke="#000" stroke-width=".7" stroke-miterlimit="10" d="M381.6 158.4l25 96.6" stroke-linejoin="round"/><path fill-rule="evenodd" d="M410.4 269.5l-9-13.8 10-2.6z"/><path fill="none" stroke="#000" stroke-width=".7" stroke-miterlimit="10" d="M691.2 158.6L460 263.3" stroke-linejoin="round"/><path fill-rule="evenodd" d="M446.4 269.5l12-11.2 4.4 9.5z"/><path fill="none" stroke="#000" stroke-width=".7" stroke-miterlimit="10" d="M489.6 158.6l25 96.4" stroke-linejoin="round"/><path fill-rule="evenodd" d="M518.4 269.5l-9-13.8 10-2.6z"/><path fill="none" stroke="#000" stroke-width=".7" stroke-miterlimit="10" d="M612 158.6l6.2 96" stroke-linejoin="round"/><path fill-rule="evenodd" d="M619.2 269.5l-6.2-15.3 10.4-.6z"/><path fill="none" stroke="#000" stroke-width=".7" stroke-miterlimit="10" d="M734.4 158.6L588.2 261" stroke-linejoin="round"/><path fill-rule="evenodd" d="M576 269.5l9.8-13.2 6 8.5z"/><path fill="none" stroke="#000" stroke-width=".8" stroke-miterlimit="10" d="M403.2 91l-129.5 38.6M410.4 91l36 38.6" stroke-linejoin="round"/><path fill="#729fcf" fill-rule="evenodd" d="M406.8 93.8c2 0 3.6-1.5 3.6-3.6 0-2-1.6-3.6-3.6-3.6s-3.6 1.6-3.6 3.6 1.6 3.6 3.6 3.6zm-3.6 0zm7.2-7.2z"/><path fill="none" stroke="#3465a4" stroke-width=".8" stroke-miterlimit="10" d="M406.8 93.8c2 0 3.6-1.5 3.6-3.6 0-2-1.6-3.6-3.6-3.6s-3.6 1.6-3.6 3.6 1.6 3.6 3.6 3.6z" stroke-linejoin="round"/><path fill="none" stroke="#000" stroke-width=".8" stroke-miterlimit="10" d="M474.7 129.6L511.2 91m136.3 38.6L518.5 91" stroke-linejoin="round"/><path fill="#729fcf" fill-rule="evenodd" d="M514.8 93.8c2 0 3.6-1.5 3.6-3.6 0-2-1.6-3.6-3.6-3.6s-3.6 1.6-3.6 3.6 1.6 3.6 3.6 3.6zm-3.6 0zm7.2-7.2z"/><path fill="none" stroke="#3465a4" stroke-width=".8" stroke-miterlimit="10" d="M514.8 93.8c2 0 3.6-1.5 3.6-3.6 0-2-1.6-3.6-3.6-3.6s-3.6 1.6-3.6 3.6 1.6 3.6 3.6 3.6z" stroke-linejoin="round"/><path fill="none" stroke="#000" stroke-width=".8" stroke-miterlimit="10" d="M674 129.8L727.2 91m33.2 38.8l-26-38.8" stroke-linejoin="round"/><path fill="#729fcf" fill-rule="evenodd" d="M730.8 93.8c2 0 3.6-1.5 3.6-3.6 0-2-1.6-3.6-3.6-3.6s-3.6 1.6-3.6 3.6 1.6 3.6 3.6 3.6zm-3.6 0zm7.2-7.2z"/><path fill="none" stroke="#3465a4" stroke-width=".8" stroke-miterlimit="10" d="M730.8 93.8c2 0 3.6-1.5 3.6-3.6 0-2-1.6-3.6-3.6-3.6s-3.6 1.6-3.6 3.6 1.6 3.6 3.6 3.6z" stroke-linejoin="round"/><path fill="none" stroke="#000" stroke-width=".8" stroke-miterlimit="10" d="M342.3 298.3l32 43.6m97.7-44l-90.5 44m125.3-44l83.6 43m46-43l-38.8 43m-338.4 29L288 494m158.4 0l-43.2-123.6M518.4 494L502 370m174.8 124l-21.6-124" stroke-linejoin="round"/><path fill="#729fcf" fill-rule="evenodd" d="M378 347.6c2 0 3.6-1.6 3.6-3.6s-1.6-3.6-3.6-3.6-3.6 1.6-3.6 3.6 1.6 3.6 3.6 3.6zm-3.6 0zm7.2-7.2z"/><path fill="none" stroke="#3465a4" stroke-width=".8" stroke-miterlimit="10" d="M378 347.6c2 0 3.6-1.6 3.6-3.6s-1.6-3.6-3.6-3.6-3.6 1.6-3.6 3.6 1.6 3.6 3.6 3.6z" stroke-linejoin="round"/><path fill="#729fcf" fill-rule="evenodd" d="M594 345.8c2 0 3.6-1.5 3.6-3.6 0-2-1.6-3.6-3.6-3.6s-3.6 1.6-3.6 3.6 1.6 3.6 3.6 3.6zm-3.6 0zm7.2-7.2z"/><path fill="none" stroke="#3465a4" stroke-width=".8" stroke-miterlimit="10" d="M594 345.8c2 0 3.6-1.5 3.6-3.6 0-2-1.6-3.6-3.6-3.6s-3.6 1.6-3.6 3.6 1.6 3.6 3.6 3.6z" stroke-linejoin="round"/></g></svg>