<?xml version="1.0" encoding="UTF-8" standalone="no"?>
<svg
   xmlns:dc="http://purl.org/dc/elements/1.1/"
   xmlns:cc="http://creativecommons.org/ns#"
   xmlns:rdf="http://www.w3.org/1999/02/22-rdf-syntax-ns#"
   xmlns:svg="http://www.w3.org/2000/svg"
   xmlns="http://www.w3.org/2000/svg"
   viewBox="0 0 648 201"
   height="201"
   width="648"
   id="svg3734"
   version="1.1">
  <metadata
     id="metadata3740">
    <rdf:RDF>
      <cc:Work
         rdf:about="">
        <dc:format>image/svg+xml</dc:format>
        <dc:type
           rdf:resource="http://purl.org/dc/dcmitype/StillImage" />
        <dc:title></dc:title>
      </cc:Work>
    </rdf:RDF>
  </metadata>
  <defs
     id="defs3738" />
  <g
     id="g3922">
    <path
       id="path3932"
       d="M 0,100.5 V 0 H 324 648 V 100.5 201 H 324 0 Z"
       style="fill:#fdfdfd" />
    <path
       id="path3930"
       d="M 0,100.5 V 0 H 324 648 V 100.5 201 H 324 0 Z m 647,0 V 1 H 324 1 V 100.5 200 H 324 647 Z M 50.298549,165.04048 C 45.409451,162.05943 44,158.36921 44,148.54966 V 140 h -8.466667 c -8.32226,0 -8.525609,-0.0589 -11.922529,-3.45586 -4.475705,-4.47571 -4.897659,-7.87897 -4.411603,-35.58172 C 19.599406,78.15271 20.114233,75.465622 24.654126,72.49097 26.93158,70.998724 27,70.542923 27,56.863102 27,44.381648 27.240914,42.343661 29.109354,39.019219 32.473375,33.033752 35.856895,32 52.083587,32 67.290933,32 70.054143,32.710785 73.911704,37.614879 75.060267,39.07504 76,41.334031 76,42.634859 76,44.93729 76.226688,45 84.54966,45 c 9.365165,0 12.899384,1.21282 16.36204,5.614879 1.84875,2.350302 2.0883,4.00335 2.0883,14.41068 V 76.7814 l 7.59924,0.383745 c 7.28895,0.368075 7.7381,0.535264 11,4.094614 L 125,84.97063 v 27.13233 27.13233 l -3.88235,3.88236 L 117.23529,147 H 105.11765 93 v 6.11765 c 0,5.77302 -0.218703,6.33635 -3.882353,10 L 85.235294,167 69.367647,166.996 C 55.394042,166.993 53.117859,166.75926 50.298549,165.04022 Z M 84.086657,160.7182 C 87.661137,157.9738 88,155.45427 88,131.62151 c 0,-23.40517 -0.01075,-23.52249 -2.411586,-26.31575 -2.320234,-2.69948 -2.817453,-2.81882 -13.126009,-3.15041 -15.318087,-0.49273 -19.114904,0.24092 -21.552408,4.1645 -1.846307,2.97194 -1.957137,4.74085 -1.692826,27.01835 L 49.5,157.1764 l 2.805764,2.4118 c 2.674642,2.29909 3.445736,2.41031 16.5,2.38 9.184886,-0.0213 14.216703,-0.43294 15.280893,-1.25 z m -22.776573,-3.79521 c -4.061828,-2.60181 -7.700466,-9.86911 -6.859168,-13.69951 3.10958,-14.15783 20.527805,-16.73945 27.144098,-4.02314 6.128741,11.77925 -8.96978,24.97061 -20.28493,17.72265 z M 73.90116,155.55111 C 77.903884,153.48122 80,149.7415 80,144.67004 c 0,-11.22788 -13.666056,-15.26651 -20.8321,-6.15636 -7.175462,9.12212 4.324153,22.42019 14.73326,17.03743 z m -9.038509,-8.95321 c -0.902935,-1.98173 -0.869409,-2.88483 0.152821,-4.11654 2.810572,-3.38653 8.70344,0.55786 6.377286,4.26864 -1.785293,2.84797 -5.199415,2.76845 -6.530107,-0.1521 z M 70,144.94098 C 70,144.42344 69.325,144 68.5,144 c -1.54641,0 -1.986704,1.17996 -0.86052,2.30615 C 68.438411,147.10508 70,146.20196 70,144.94098 Z M 68.339286,126.1238 C 66.600894,125.03161 64.883069,123.20694 64.521899,122.069 64.022782,120.49642 63.025854,120 60.366871,120 53.94096,120 50.147857,115.96471 52.24567,111.36027 53.817801,107.90964 57.399074,107 69.412194,107 c 10.082665,0 11.617768,0.23573 14.063544,2.15958 2.518751,1.98125 2.708441,2.60592 2.297202,7.56493 -0.338427,4.08098 -1.07172,6.02882 -2.992895,7.94999 -3.493394,3.49339 -10.127537,4.15921 -14.440759,1.4493 z M 81,123 c 2.576576,-2.57658 2.876013,-11.44986 0.418213,-12.39301 C 80.548229,110.27314 74.52833,110 68.040657,110 c -9.542634,0 -12.046844,0.30253 -13.110224,1.58382 -2.133308,2.57048 0.14845,4.80823 5.921015,5.80682 C 63.683152,117.8805 66,118.75149 66,119.32619 c 0,0.5747 0.978441,2.08641 2.174314,3.35936 C 71.053714,125.75053 78.077272,125.92273 81,123 Z m 35.08666,17.7182 C 119.66114,137.9738 120,135.45427 120,111.62151 c 0,-22.973902 -0.0516,-23.569929 -2.26133,-26.138932 -1.84922,-2.149853 -3.39825,-2.732042 -8.5,-3.194652 C 103.09084,81.73046 103,81.758845 103,84.237281 c 0,2.335542 0.40443,2.548597 5.66613,2.984938 7.49863,0.621845 9.7471,3.125462 9.07632,10.106304 -0.63635,6.622707 -3.72992,9.641097 -10.77621,10.514337 -4.9383,0.61199 -8.394051,3.15253 -4.29957,3.16088 2.91438,0.006 8.17507,3.68842 10.33873,7.23712 6.45681,10.59002 -4.62127,24.28363 -16.376109,20.24251 C 93.123412,137.2781 93,137.31668 93,139.61784 c 0,2.36379 0.0829,2.38191 10.75,2.35036 6.86918,-0.0203 11.32279,-0.47158 12.33666,-1.25 z m -10.05393,-5.23513 c 7.41402,-3.83393 7.9277,-16.74851 0.80258,-20.17775 -4.18636,-2.01485 -5.54083,-2.16741 -9.752399,-1.0984 l -4.152189,1.05394 0.284639,9.59258 c 0.269951,9.0976 0.413641,9.65771 2.784639,10.85483 3.33411,1.68339 6.47842,1.61281 10.03273,-0.2252 z m -8.992861,-7.93503 c -2.656456,-3.20083 1.245234,-8.11777 4.710131,-5.93574 3.46233,2.18041 2.22883,7.3877 -1.75,7.3877 -0.965311,0 -2.29737,-0.65338 -2.960131,-1.45196 z m 3.564301,-3.27721 c -1.016519,-1.01651 -1.855251,0.51389 -1.021221,1.86338 0.630031,1.01942 0.865581,1.02021 1.204301,0.004 0.2316,-0.69479 0.14921,-1.53512 -0.18308,-1.86742 z M 44,133.96862 c 0,-0.56727 -0.7875,-1.27095 -1.75,-1.56374 C 34.236007,129.96701 30,124.96644 30,117.94385 30,110.61204 36.303954,104 43.29414,104 c 3.662967,0 4.204056,-2.69101 0.886087,-4.406801 C 42.667204,98.810785 40.806648,97.007236 40.045658,95.585314 38.927257,93.495561 37.927698,93 34.83102,93 27.619649,93 24.386564,86.200889 29.634859,82.07258 31.965504,80.239294 33.64488,80 44.180313,80 c 11.312485,0 12.033855,0.123259 14.365142,2.454545 2.650264,2.650264 3.232823,7.36823 1.479296,11.980355 -0.842855,2.216876 -0.7071,2.5651 1,2.5651 1.809953,0 1.972588,-0.690392 1.943446,-8.25 -0.03455,-8.961331 -0.900675,-11.013431 -5.364792,-12.710685 -4.089125,-1.554683 -24.009934,-1.314123 -27.963252,0.337679 -5.37768,2.246938 -5.78319,4.522514 -5.443581,30.547386 l 0.303428,23.2522 2.805764,2.41171 C 29.688453,134.63634 31.158633,135 37.055764,135 41.159462,135 44,134.57811 44,133.96862 Z M 44,126 c 0,-2.84619 -0.422531,-4 -1.464816,-4 -1.865893,0 -3.709869,-3.3812 -2.939217,-5.38949 0.323837,-0.84391 1.447224,-1.80683 2.496414,-2.13983 C 43.535485,114.01266 44,112.92461 44,110.00242 v -3.86281 l -3.220788,0.92371 c -10.019691,2.87361 -11.625457,16.8025 -2.458227,21.32339 C 43.211455,130.79848 44,130.46708 44,126 Z m -0.395833,-8.72917 c -1.016516,-1.01651 -1.855248,0.51389 -1.021218,1.86338 0.630035,1.01942 0.865577,1.02021 1.204302,0.004 0.231595,-0.69479 0.149207,-1.53512 -0.183084,-1.86742 z M 95.961045,106.81144 C 97.896792,104.73366 98,103.3951 98,80.367202 98,56.192596 97.991963,56.102184 95.595322,53.315923 93.258316,50.598992 92.860053,50.509824 81.443334,50.147408 62.52084,49.546727 59,51.703219 59,63.893804 c 0,5.535531 0.21871,6.122319 2.864459,7.685201 C 65.154166,73.522283 68,77.848511 68,80.906235 v 2.09765 l 3.735191,-2.001942 c 9.08872,-4.871263 19.280486,0.157534 20.93087,10.327658 0.316057,1.947628 0.08038,4.959003 -0.523727,6.691944 -0.818511,2.347985 -0.787139,4.148035 0.123124,7.064625 0.671824,2.15261 1.319404,3.91383 1.439065,3.91383 0.119662,0 1.135097,-0.98485 2.256522,-2.18856 z M 80,75.293772 C 77.663942,74.439813 74,70.795359 74,69.325686 74,68.443236 72.647423,68 69.954545,68 c -2.96184,0 -4.702928,-0.657474 -6.5,-2.454545 -3.156141,-3.156142 -3.091442,-4.062405 0.549992,-7.703838 l 3.004537,-3.004537 12.586058,0.33146 c 11.822105,0.311341 12.701956,0.474756 14.495463,2.692244 3.600182,4.451257 1.77267,14.124324 -3.149352,16.669601 C 88.126144,75.986129 82.892837,76.351265 80,75.293772 Z m 11.171259,-3.94876 C 93.304635,69.414334 93.733338,61.133338 91.8,59.2 89.935724,57.335724 66.613949,57.555311 65.039869,59.451961 62.508907,62.501583 64.216978,64.452889 70.25685,65.411856 73.932175,65.995398 76,66.805512 76,67.661856 76,68.397835 76.9,69.9 78,71 c 2.564864,2.564864 10.488992,2.772431 13.171259,0.345012 z M 113,103 c 2.2815,-2.2815 2.79179,-9.808212 0.8,-11.8 -0.66,-0.66 -3.36,-1.2 -6,-1.2 H 103 v 7.5 7.5 h 4 c 2.66667,0 4.66667,-0.66667 6,-2 z M 89.818035,94.544057 c 0.57377,-6.858055 -3.114694,-12.070458 -8.887528,-12.559528 -4.963579,-0.420511 -6.852119,0.07863 -9.853782,2.604365 C 68.410181,86.832643 68,87.832523 68,92.088894 V 97 h 4.122445 c 3.49046,0 3.937704,-0.222598 2.917381,-1.452012 C 73.450091,93.632474 74.590895,90.26462 77.09914,89.468534 80.86987,88.271751 83.621218,92.978782 80.8,95.8 c -0.933333,0.933333 -0.655556,1.203403 1.25,1.215313 1.3475,0.0084 3.125,0.451107 3.95,0.983744 2.417074,1.560513 3.4788,0.59974 3.818035,-3.455 z m -33.306081,1.446022 c 1.16947,-0.970574 1.501861,-2.757925 1.283179,-6.899981 L 57.5,83.5 44.395691,83.221989 c -11.060302,-0.234646 -13.312963,-0.0266 -14.442011,1.333823 -2.156807,2.598794 0.100444,4.831958 5.897768,5.834831 C 38.683152,90.880497 41,91.751494 41,92.326192 c 0,0.574698 1.0125,2.129579 2.25,3.455292 1.917228,2.053892 2.947612,2.34443 6.966821,1.964432 2.594252,-0.245275 5.427062,-1.035402 6.295133,-1.755837 z m 22.591845,-3.28628 c -1.283486,-1.283486 -2.585054,-0.291503 -1.634836,1.245982 0.368078,0.595563 1.127349,0.799712 1.687268,0.453663 0.683003,-0.422119 0.665748,-0.981465 -0.05243,-1.699645 z M 45.22583,68.003738 c 1.800794,-1.097944 4.51167,-1.997944 6.02417,-2 2.025244,-0.0028 2.75,-0.500096 2.75,-1.887107 0,-1.039686 -0.892123,-2.116664 -1.991505,-2.404159 -1.095328,-0.286434 -2.782828,-1.911073 -3.75,-3.610308 -1.442102,-2.533645 -2.39317,-3.090656 -5.285989,-3.095841 -7.167626,-0.01285 -10.638297,-6.280345 -5.870564,-10.601335 2.951017,-2.674503 23.215918,-3.390633 28.027222,-0.990439 6.039922,3.01311 7.552555,1.653865 3.459605,-3.108785 -2.350964,-2.735636 -2.706454,-2.8143 -14.222812,-3.147295 C 33.497401,36.555055 32,37.948245 32,57.967881 V 70 h 4.97583 c 3.212625,0 6.136046,-0.707384 8.25,-1.996262 z m 7.535829,1.309182 c -0.956087,-0.250293 -2.756087,-0.259374 -4,-0.02018 C 47.517747,69.531932 48.3,69.736717 50.5,69.747817 c 2.2,0.0111 3.217747,-0.184605 2.261659,-0.434897 z m 3.495422,-18.269566 c 0.898033,-1.282123 2.895067,-3.163417 4.437853,-4.180654 L 63.5,45.013178 51.372445,45.006589 c -12.761534,-0.0069 -14.949273,0.716557 -14.198171,4.695372 0.253944,1.345217 1.785794,2.027683 6.082576,2.709895 3.675325,0.583542 5.74315,1.393656 5.74315,2.25 0,0.735979 1.005934,2.344078 2.235408,3.573552 l 2.235409,2.235409 0.576738,-3.548166 c 0.317205,-1.951491 1.311492,-4.597175 2.209526,-5.879297 z M 503.92168,163.7262 c -1.85575,-1.25058 -4.3973,-3.79213 -5.64788,-5.64788 L 496,154.70423 V 95.253246 c 0,-66.73994 -0.28543,-64.050674 7.33326,-69.092484 L 507.35394,23.5 h 43.07303 c 47.82864,0 46.8496,-0.127431 51.74419,6.734911 L 604.5,33.5 l 0.27233,60.568985 0.27232,60.568985 -2.29612,3.40722 c -1.26287,1.87397 -3.81446,4.43043 -5.67021,5.68101 L 593.70423,166 H 550.5 507.29577 Z m 88.24958,-10.38119 C 593.90192,151.77879 594,148.65151 594,95.036142 c 0,-47.336099 -0.23332,-56.973138 -1.41864,-58.595012 -1.35565,-1.854943 -3.14097,-1.953765 -40.20944,-2.225699 -40.84564,-0.299643 -43.64761,-0.04197 -44.76305,4.116448 -0.31986,1.192467 -0.58771,26.930493 -0.59522,57.195615 -0.012,48.200476 0.17948,55.303226 1.54305,57.249996 L 510.11341,155 h 40.11455 c 35.9237,0 40.30561,-0.1729 41.9433,-1.65499 z m -49.85532,-9.61212 c -11.16649,-4.32374 -18.32381,-14.74043 -18.30617,-26.64261 0.0236,-15.94309 12.1165,-28.070742 27.99023,-28.070742 15.83214,0 28.03003,12.072492 28.15234,27.862912 0.0768,9.91475 -4.74747,18.72416 -13.23726,24.17204 -4.59992,2.95177 -6.065,3.35013 -13.2924,3.61434 -4.78126,0.17479 -9.4325,-0.21023 -11.30674,-0.93594 z M 561,138.91909 c 9.52805,-4.31301 14.40488,-11.70399 14.46301,-21.91909 0.0305,-5.36817 -0.4535,-7.33445 -2.77987,-11.29216 -8.14516,-13.85688 -26.06587,-16.377738 -37.20946,-5.23416 -9.4906,9.49061 -9.40764,24.63316 0.18474,33.71737 4.06066,3.84554 11.11295,6.76503 16.34158,6.76503 2.475,0 6.525,-0.91665 9,-2.03699 z M 549.357,124.9991 C 546.5663,123.88505 544,120.1642 544,117.23204 544,113.8667 548.2773,110 552,110 c 3.79622,0 8,3.88785 8,7.39878 0,2.85484 -3.55283,7.19896 -6.5,7.9477 -1.1,0.27946 -2.96435,0.12314 -4.143,-0.34738 z m 4.06121,-4.60609 c 2.07319,-0.79556 2.04059,-5.00297 -0.045,-5.80327 -3.21136,-1.23232 -5.63552,2.74799 -3.17325,5.21026 1.40234,1.40234 1.20426,1.36584 3.21821,0.59301 z M 540.4,76.6 c -2.60741,-2.607407 -3.4,-4.239216 -3.4,-7 V 66 h -7.45295 c -8.60999,0 -11.56095,-1.060661 -13.88178,-4.989504 -3.16425,-5.356649 -1.58697,-11.445697 3.90216,-15.064151 2.7211,-1.793763 4.93725,-1.933642 30.73223,-1.939756 30.01806,-0.0071 31.67141,0.247932 35.05184,5.407116 1.27029,1.938701 1.6485,4.95595 1.6485,13.151112 L 587,73.2 583.6,76.6 580.2,80 H 562 543.8 Z m 40.67692,-2.523077 C 583.85514,71.298707 584,70.72705 584,62.54174 c 0,-9.778166 -1.2744,-12.744542 -6.21521,-14.466917 -4.20232,-1.464939 -50.44094,-1.439254 -54.65668,0.03036 C 519.49861,49.370437 518,51.613063 518,55.779271 518,60.731162 521.02058,62.431652 530.82618,63 l 8.62641,0.5 0.74885,4.5 c 0.49161,2.95419 1.63533,5.272905 3.32947,6.75 2.44565,2.132323 3.41854,2.25 18.60178,2.25 h 16.02116 z M 177,125.52539 v -17.4746 L 161.25,107.77539 145.5,107.5 v -11 -11 L 161.25,85.224607 177,84.949214 V 68.474607 52 h 10 10 V 68.5 85 h 27.45747 27.45747 L 247.35841,72.25 C 244.85232,65.2375 242.17146,57.755923 241.40094,55.624273 240.63042,53.492624 240,51.580124 240,51.374273 240,51.168423 244.68763,51 250.41695,51 h 10.41694 L 266.5,68 272.16611,85 283.33305,84.98766 294.5,84.975321 299.92875,67.987661 305.35749,51 h 10.42824 c 9.52672,0 10.36885,0.151289 9.74124,1.75 -0.37786,0.9625 -2.90071,7.899941 -5.60635,15.416535 -2.70563,7.516594 -5.19277,14.379094 -5.52697,15.25 C 313.864,84.796788 315.08309,85 323.89301,85 H 334 V 68 51 h 13.89045 13.89045 l 2.07992,7.75 c 1.14395,4.2625 3.14998,11.8 4.45784,16.75 l 2.37792,9 h 7.31069 7.31068 l 3.67839,-14 c 2.02311,-7.7 3.98823,-15.249784 4.36692,-16.777299 l 0.68855,-2.777298 14.22409,0.277298 L 422.5,51.5 422.77418,68.25 423.04836,85 H 439.02418 455 v -5.5 c 0,-3.772815 0.3979,-5.5 1.26705,-5.5 0.69688,0 6.20188,4.950167 12.23332,11.000372 l 10.96626,11.000372 -11.467,11.499626 C 461.69278,113.82517 456.18778,119 455.76631,119 455.34484,119 455,116.525 455,113.5 V 108 h -16 -16 v 17.5 17.5 h -9 -9 V 125.5 108 h -4.48095 c -4.05312,0 -4.54732,0.26256 -5.17609,2.75 -0.38234,1.5125 -2.33156,9.275 -4.33162,17.25 l -3.63646,14.5 H 378 368.62512 L 364.98866,128 c -2.00006,-7.975 -3.94928,-15.7375 -4.33162,-17.25 -0.6125,-2.42306 -1.16843,-2.75 -4.67609,-2.75 H 352 v 17.5 17.5 h -9 -9 V 125.5 108 l -14.25,0.0118 -14.25,0.0118 -6.0807,17.23817 L 293.3386,142.5 282.9193,142.76631 272.5,143.03262 266.41763,125.76631 260.33527,108.5 228.66763,108.23595 197,107.97191 V 117.48595 127 h 22.5 22.5 v 8 8 H 209.5 177 Z M 285.29445,112.75 286.8786,108 h -3.34736 -3.34736 l 1.59307,4.98166 c 0.87619,2.73991 1.66963,4.87741 1.7632,4.75 0.0936,-0.12741 0.88301,-2.36916 1.7543,-4.98166 z M 379,109 c 0,-0.55 -0.45,-1 -1,-1 -0.55,0 -1,0.45 -1,1 0,0.55 0.45,1 1,1 0.55,0 1,-0.45 1,-1 z M 353.90032,83.75 C 353.8455,83.0625 353.44035,81.375 353,80 352.28546,77.768852 352.18864,77.903278 352.09968,81.25 352.04486,83.3125 352.45,85 353,85 c 0.55,0 0.95514,-0.5625 0.90032,-1.25 z m 51.01026,-4.5 -0.0894,-5.75 -1.3913,5 c -1.75049,6.290897 -1.74824,6.5 0.0701,6.5 1.16979,0 1.48032,-1.265814 1.41058,-5.75 z"
       style="fill:#cee1f1" />
    <path
       id="path3928"
       d="M 48.4,162.6 C 45.010501,159.2105 45,159.17066 45,149.6995 v -9.5005 l -9.077571,-0.3495 c -9.03519,-0.34787 -9.09355,-0.36694 -12.5,-4.08481 L 20,132.02937 20.0037,105.76469 C 20.0072,81.52181 20.156988,79.254734 21.950189,76.313822 23.018702,74.561424 24.81702,72.633091 25.946451,72.028638 27.873038,70.99758 28,70.03225 28,56.415156 28,33.824689 28.846909,33 52.046048,33 64.271191,33 67.725267,33.315354 69.960167,34.635541 73.164429,36.528345 76,40.879824 76,43.904292 76,45.878298 76.528204,46 85.095708,46 100.41719,46 103,48.871322 103,65.904292 V 77 h 5.59887 c 6.88416,0 11.73254,2.182135 14.38537,6.474496 1.88269,3.046265 2.01551,4.937117 2.01202,28.643534 -0.003,23.06946 -0.17486,25.66259 -1.88194,28.46201 C 120.07356,145.56654 115.71612,147 103.59887,147 H 93 v 5.04966 c 0,5.81405 -1.818406,9.94611 -5.413705,12.30184 C 85.503896,165.71594 82.203897,166 68.435183,166 H 51.8 Z M 85.545455,159.54545 88,157.09091 V 132 106.90909 l -2.454545,-2.45454 C 83.181847,102.09094 82.59081,102 69.592508,102 c -14.500886,0 -17.709726,0.76709 -19.482236,4.65732 -1.561699,3.42756 -1.515303,47.71369 0.05307,50.65842 2.265673,4.25396 3.728772,4.6193 18.632112,4.65246 13.864753,0.0308 14.369406,-0.0421 16.75,-2.42275 z M 64.64255,158.00811 c -11.410379,-3.5644 -12.85772,-18.63839 -2.40169,-25.01351 10.935868,-6.66768 24.754077,5.78444 19.262134,17.35785 -2.8705,6.04913 -10.668525,9.5899 -16.860444,7.65566 z m 9.879048,-2.58538 C 77.964297,153.78906 81,148.90509 81,145 c 0,-11.88609 -17.085482,-16.47052 -22.483073,-6.03273 -5.670414,10.96537 4.82777,21.75924 16.004671,16.45546 z m -7.797421,-7.55721 c -2.09632,-1.17316 -2.245742,-4.18777 -0.288099,-5.81247 C 68.366321,140.45109 72,142.37568 72,145 c 0,2.51538 -2.994857,4.14201 -5.275823,2.86552 z M 69.5,145 c 0,-0.73333 -0.5625,-1.52083 -1.25,-1.75 -0.74359,-0.24786 -1.25,0.46111 -1.25,1.75 0,1.28889 0.50641,1.99786 1.25,1.75 0.6875,-0.22917 1.25,-1.01667 1.25,-1.75 z m -3.620241,-22 c -2.699253,-3.35886 -3.803961,-4 -6.892136,-4 -4.942442,0 -7.741417,-2.95442 -6.403408,-6.75903 1.441451,-4.09874 4.778628,-5.20977 15.697904,-5.22623 10.058967,-0.0152 16.63924,1.62382 16.799123,4.18423 0.04468,0.71557 0.191164,2.65103 0.325514,4.30103 0.610789,7.5013 -3.326869,11.5 -11.32445,11.5 -4.616989,0 -5.227192,-0.29757 -8.202547,-4 z m 15.481999,0.15276 c 2.152217,-2.37818 2.855178,-10.72783 1.030662,-12.24204 -1.862779,-1.54597 -22.191668,-2.32325 -25.708796,-0.98298 -2.286507,0.87131 -2.756853,1.59052 -2.5,3.82275 0.289645,2.5172 0.802207,2.82655 6.066376,3.66137 3.1625,0.50152 5.75,1.41389 5.75,2.02749 0,0.6136 0.700517,2.11577 1.556704,3.33814 2.08623,2.97851 11.224347,3.22692 13.805054,0.37527 z M 117.54545,139.54545 120,137.09091 V 112.62724 C 120,99.172225 119.72047,87.435127 119.37882,86.544802 118.38579,83.957023 113.50738,82 108.04966,82 103.10559,82 103,82.062733 103,85 c 0,2.94658 0.0921,3 5.17126,3 6.98695,0 8.82874,1.759128 8.82874,8.432481 0,2.978759 -0.64008,6.036349 -1.52948,7.306149 -1.74538,2.49188 -7.7716,4.47489 -11.07743,3.64518 -1.57406,-0.39506 -2.54014,0.0224 -3.28877,1.42127 -0.94149,1.75918 -0.67549,2.05279 2.37892,2.6258 4.37847,0.8214 9.13209,5.55315 10.6421,10.59314 1.04963,3.50334 0.91964,4.41327 -1.22559,8.57949 -3.74465,7.27242 -11.05014,10.07042 -18.14975,6.95134 C 93.334241,136.93286 93,137.28394 93,139.39301 V 142 h 11.04545 c 10.39394,0 11.19024,-0.14478 13.5,-2.45455 z m -8.96637,-5.61974 c 1.35001,-1.26827 2.95505,-3.97643 3.56676,-6.01815 0.9347,-3.11974 0.81231,-4.32186 -0.76682,-7.53205 -2.73712,-5.56425 -7.32727,-7.9153 -13.227026,-6.7748 L 93.5,114.5 93.216867,124.5824 c -0.270489,9.63215 -0.181173,10.13397 2,11.23708 3.506181,1.77324 10.516433,0.7797 13.362213,-1.89377 z M 97.5,127 c -1.746633,-1.93001 -1.746633,-2.06999 0,-4 0.995486,-1.1 2.158088,-2 2.58356,-2 1.04572,0 3.91644,2.93197 3.91644,4 0,1.06803 -2.87072,4 -3.91644,4 -0.425472,0 -1.588074,-0.9 -2.58356,-2 z m 4.05385,-1.08713 c 1.03052,-1.66742 -1.28721,-3.57951 -2.666718,-2.2 C 97.733208,124.86679 98.455411,127 100,127 c 0.48508,0 1.18431,-0.48921 1.55385,-1.08713 z m -56.755519,7.98212 c -0.202584,-0.60775 -2.082749,-1.69439 -4.178144,-2.41475 -10.668419,-3.66763 -13.748307,-14.96075 -6.248773,-22.91258 2.31997,-2.45988 4.51656,-3.68602 7.441231,-4.15369 4.919715,-0.7867 7.43608,-3.02718 4.549979,-4.05115 C 43.721397,99.425733 40,95.894709 40,94.325686 40,93.443236 38.647423,93 35.954545,93 c -2.96184,0 -4.702928,-0.657474 -6.5,-2.454545 -2.86022,-2.860221 -3.033536,-4.273816 -0.897841,-7.322949 1.477383,-2.10926 2.241697,-2.222506 15,-2.222506 12.080172,0 13.644753,0.201457 15.430088,1.986792 1.532588,1.532588 1.893013,2.96141 1.57658,6.25 C 60.337756,91.581556 59.845554,94.2875 59.469591,95.25 58.950376,96.57924 59.292615,97 60.893011,97 62.878321,97 63,96.484439 63,88.07258 c 0,-8.453362 -0.139915,-9.037476 -2.634859,-11 C 57.985688,75.200902 56.378833,75 43.788218,75 H 29.846154 L 26.923077,77.923077 24,80.846154 v 23.642666 c 0,23.96967 0.336518,26.48318 3.913343,29.22938 2.063447,1.58426 17.407699,1.74493 16.884988,0.17679 z M 45,126.23713 c 0,-2.94309 -0.490188,-3.97793 -2.25,-4.75 C 41.279901,120.84216 40.5,119.63344 40.5,118 c 0,-1.63344 0.779901,-2.84216 2.25,-3.48713 1.759812,-0.77207 2.25,-1.80691 2.25,-4.75 0,-4.25951 -1.004732,-4.62339 -6.465701,-2.34165 -5.527658,2.30961 -8.029464,9.516 -5.559225,16.01322 1.124553,2.9578 6.485204,6.55636 9.774926,6.56182 1.935364,0.003 2.25,-0.52245 2.25,-3.75913 z M 44.5,118 c 0,-0.73333 -0.5625,-1.52083 -1.25,-1.75 -0.74359,-0.24786 -1.25,0.46111 -1.25,1.75 0,1.28889 0.50641,1.99786 1.25,1.75 0.6875,-0.22917 1.25,-1.01667 1.25,-1.75 z M 98,80.325686 C 98,47.936868 99.164119,49.570584 76.509683,50.166345 64.026593,50.494623 63.783261,50.545218 61.411059,53.305764 59.344106,55.711089 59,57.143198 59,63.340156 c 0,6.97407 0.105826,7.291142 3.00512,9.003797 C 65.279601,74.278237 68,78.670427 68,82.02292 v 2.12224 l 2.601447,-2.046298 c 6.743119,-5.304138 16.511874,-2.62767 20.503316,5.61755 1.987876,4.106404 2.095375,5.03244 1.008768,8.689892 -1.509123,5.079616 -1.507914,5.263836 0.06432,9.800756 l 1.284654,3.70707 2.268748,-2.13138 C 97.973755,105.67603 98,105.3584 98,80.325686 Z M 79.475761,74.604057 C 77.81243,73.879345 75.909577,72.096959 75.2472,70.643199 74.250105,68.454814 73.383356,68 70.21,68 63.311412,68 59.744239,62.255761 64,58 c 1.79372,-1.79372 3.333333,-2 14.92742,-2 12.615379,0 12.975125,0.06065 14.90378,2.512535 1.435652,1.825135 1.870352,3.613105 1.588889,6.535267 -0.533057,5.534214 -2.000441,7.878911 -5.968462,9.536856 -4.129376,1.725364 -6.051824,1.729102 -9.975866,0.0194 z m 10.001163,-1.775496 c 2.58149,-1.176206 3.871925,-4.129582 3.881543,-8.883559 C 93.370277,58.107538 93.121641,58 79.613172,58 c -6.847278,0 -13.161401,0.273145 -14.031385,0.606989 -1.884718,0.723234 -2.099505,4.721994 -0.331787,6.17698 0.6875,0.565872 3.296945,1.333487 5.798767,1.705812 3.299862,0.491089 4.809938,1.266948 5.5,2.825833 1.8212,4.114178 7.952199,5.780144 12.928157,3.512947 z m 23.924136,30.280759 c 1.26867,-1.40185 1.63191,-3.276285 1.40499,-7.249996 L 114.5,90.5 108.75,89.988083 103,89.476167 V 97.238083 105 h 4.34501 c 2.99128,0 4.87811,-0.58906 6.05605,-1.89068 z M 90.5,93.656021 C 90.5,85.767447 83.809691,80.062716 76.226616,81.485309 70.717705,82.518787 68,85.977353 68,91.954545 V 97 h 4.7 c 3.655556,0 4.433333,-0.266667 3.5,-1.2 -1.800761,-1.800761 -1.446169,-4.597887 0.730554,-5.762834 3.396368,-1.817681 6.63163,3.00065 3.869446,5.762834 -0.933333,0.933333 -0.766667,1.207875 0.75,1.235435 1.0725,0.01949 3.075,0.663495 4.45,1.431123 3.294025,1.838972 4.5,0.549773 4.5,-4.810537 z m -33.374924,2.618903 c 1.488195,-1.488195 1.999733,-10.419612 0.687342,-12.000947 -1.107265,-1.334173 -24.028878,-1.895616 -27.230631,-0.666988 -2.267445,0.8701 -1.971711,5.113962 0.446554,6.408179 1.115588,0.597044 3.627186,1.229003 5.58133,1.404352 2.762506,0.247886 3.992305,1.041217 5.527592,3.565794 1.932267,3.177358 2.10237,3.237734 7.933557,2.815944 3.277425,-0.237067 6.451839,-0.923917 7.054256,-1.526334 z M 79.5,93.166667 c 0,-1.808656 -1.957297,-1.478465 -2.345503,0.39568 -0.215987,1.042717 0.158879,1.499861 1,1.219487 C 78.894523,94.535159 79.5,93.808333 79.5,93.166667 Z M 48.736625,67.362957 c 2.880144,-1.024626 5.242644,-2.352212 5.25,-2.95019 0.0074,-0.597979 -1.7686,-2.960479 -3.94657,-5.25 C 46.991317,55.957877 45.33788,55 42.854506,55 39.391108,55 35,51.724009 35,49.140137 35,48.308958 35.978441,46.587399 37.174314,45.314451 39.208685,43.148963 40.107569,43 51.140387,43 c 8.976233,0 12.632559,0.400949 15.313129,1.679224 4.151168,1.979554 5.274195,1.292189 3.966056,-2.427483 -1.61508,-4.592456 -4.496847,-5.329823 -19.644648,-5.026539 -18.619826,0.372799 -18.16053,-0.09367 -18.602125,18.892435 l -0.327201,14.067789 5.827201,-0.479756 c 3.204961,-0.263866 8.183682,-1.318087 11.063826,-2.342713 z M 54,69 c 0,-1.198372 -3.711239,-1.198372 -6.5,0 -1.548961,0.665611 -1.041543,0.87528 2.25,0.929715 C 52.0875,69.968372 54,69.55 54,69 Z M 54.393011,58.418213 C 54.726855,57.548229 55,56.033916 55,55.053071 c 0,-2.588943 3.846705,-7.075333 7.415186,-8.64829 2.769372,-1.220715 1.71531,-1.336497 -10.308025,-1.13227 -11.514078,0.195577 -13.547435,0.472981 -14.494885,1.977489 -1.820265,2.890499 0.467587,5.142222 6.239172,6.140643 C 46.683152,53.880497 49,54.745063 49,55.311902 49,56.535323 51.991621,60 53.047999,60 c 0.405913,0 1.011168,-0.711804 1.345012,-1.581787 z M 503.60502,163.07832 c -1.59223,-1.04968 -3.84223,-3.4046 -5,-5.23316 C 496.52523,154.56035 496.5,153.80022 496.5,94.432408 V 34.344316 l 2.80169,-3.67321 C 504.51761,23.832685 503.23353,24 550.5,24 c 46.66324,0 45.70183,-0.114142 50.88088,6.040808 L 604,33.153451 603.993,94.326725 c -0.006,58.241895 -0.0969,61.310265 -1.8913,64.031975 -1.03659,1.57229 -3.17112,3.70682 -4.74341,4.74341 -2.6914,1.77441 -5.43376,1.88471 -46.8587,1.88471 -41.61892,0 -44.15666,-0.10328 -46.89498,-1.9085 z m 88.82355,-9.64975 C 593.82062,152.03652 594,145.30819 594,94.485275 V 37.113408 l -2.22251,-1.556704 C 589.85753,34.211911 584.20823,34 550.27749,34 512.33333,34 510.93211,34.067893 509,36 c -1.95294,1.952945 -2,3.333333 -2,58.671259 0,51.329881 0.15599,56.843621 1.65499,58.500001 1.55113,1.71399 4.18217,1.82874 41.92857,1.82874 35.27901,0 40.46847,-0.19488 41.84501,-1.57143 z m -49.81335,-10.06778 c -7.22884,-2.21967 -14.95249,-10.27327 -17.17094,-17.90448 -3.99091,-13.72822 1.78404,-26.767313 14.93925,-33.73093 5.81042,-3.075704 17.42252,-3.075704 23.23294,0 13.23658,7.00669 18.95484,19.91779 14.93925,33.73093 -1.31674,4.52944 -2.85043,6.96884 -6.97396,11.09237 -7.95623,7.95622 -17.74408,10.25805 -28.96654,6.81211 z m 21.9777,-5.91253 c 2.99417,-1.85116 6.01388,-4.87685 7.88064,-7.89628 2.67922,-4.33353 3.02416,-5.7646 3.00659,-12.47356 -0.0218,-8.30915 -1.3395,-11.78392 -6.38051,-16.82493 -6.14108,-6.141088 -15.40251,-8.544409 -23.84941,-6.188875 -6.11118,1.704186 -14.28521,9.632135 -16.03411,15.551405 -3.5289,11.94376 1.99473,24.30226 13.20306,29.5404 6.26564,2.9282 15.87151,2.18821 22.17374,-1.70816 z M 547,123 c -2.97766,-2.97766 -2.66668,-8.33043 0.63486,-10.92742 1.44917,-1.13992 3.228,-2.07258 3.95295,-2.07258 2.8098,0 6.32797,2.38246 7.42339,5.02703 2.93006,7.0738 -6.59061,13.39356 -12.0112,7.97297 z m 7.92607,-3.86186 c 1.30098,-2.4309 -0.83786,-5.49436 -3.48068,-4.9854 -2.01769,0.38857 -2.99905,2.96207 -2.06135,5.40567 0.78851,2.05482 4.36245,1.7838 5.54203,-0.42027 z M 543.18976,78.647139 C 540.02613,76.891596 537.01455,72.071074 537.00659,68.75 L 537,66 h -7.89424 c -7.29723,0 -8.1248,-0.215362 -10.94273,-2.847707 -1.67666,-1.566238 -3.35023,-4.049974 -3.71903,-5.519411 -0.84599,-3.370686 1.07635,-8.110427 4.32622,-10.666776 C 521.12549,45.113453 522.95138,45 550.41235,45 c 31.88988,0 31.99417,0.01786 35.09336,6.011044 2.09964,4.060246 2.01247,18.094705 -0.14055,22.631878 -2.70248,5.695053 -5.18719,6.361597 -23.5655,6.321643 -11.32942,-0.02463 -17.00412,-0.426352 -18.6099,-1.317426 z m 36.8969,-2.928942 C 583.08349,73.417305 584,70.115825 584,61.621505 c 0,-7.554182 -0.27106,-8.825106 -2.41342,-11.315741 L 579.17317,47.5 H 550.5 521.82683 l -2.50578,2.91315 c -1.94556,2.261842 -2.37268,3.603294 -1.91041,6 C 518.38816,61.481252 521.18232,63 529.529,63 538.79252,63 540,63.481184 540,67.17273 c 0,3.336803 1.55667,6.736075 3.91334,8.545467 2.21967,1.704208 33.95365,1.704208 36.17332,0 z M 177.66667,142.33333 C 177.3,141.96667 177,134.09167 177,124.83333 V 108 H 161.5 146 V 96.5 85 h 15.47523 15.47523 L 177.22523,68.75 177.5,52.5 h 9.5 9.5 l 0.27477,16.25 0.27477,16.25 h 27.47523 C 239.63615,85 252,84.864695 252,84.699321 c 0,-0.165373 -2.65205,-7.622897 -5.89344,-16.572274 -4.14515,-11.444606 -5.53076,-16.41077 -4.67086,-16.740746 0.67242,-0.258033 5.23697,-0.338009 10.14344,-0.177726 L 260.5,51.5 266.38,68.25 272.25999,85 h 11.14206 11.14206 l 5.54829,-16.75 5.5483,-16.75 9.67965,-0.286212 C 322.7338,50.994584 325,51.231368 325,52.22517 c 0,0.713677 -2.475,8.181322 -5.5,16.594768 C 316.475,77.233383 314,84.315761 314,84.558556 314,84.80135 318.5,85 324,85 h 10 V 68 51 h 13.83888 13.83888 l 4.4618,16.75 4.4618,16.75 h 7.44555 7.44555 l 4.397,-16.75 L 394.28647,51 H 408.14323 422 v 17 17 h 16.5 16.5 v -4.940983 c 0,-2.717541 0.36855,-5.168761 0.81901,-5.447156 0.45045,-0.278396 5.8506,4.539738 12.00033,10.706963 l 11.18132,11.213137 -11.29987,11.267819 c -6.21492,6.19729 -11.61507,10.9526 -12.00033,10.56735 C 455.31521,117.98187 455,115.49167 455,112.83333 V 108 H 438.5 422 v 17.5 17.5 h -8.5 -8.5 v -17.55479 -17.55479 l -4.69234,0.30479 -4.69234,0.30479 -3.63156,14.5 c -1.99736,7.975 -3.94438,15.7375 -4.32672,17.25 -0.69356,2.74372 -0.71561,2.75 -9.65704,2.75 -8.94143,0 -8.96348,-0.006 -9.65704,-2.75 -0.38234,-1.5125 -2.32936,-9.275 -4.32672,-17.25 l -3.63156,-14.5 -4.69234,-0.30479 L 351,107.89042 V 125.44521 143 H 342.5 334 V 125.5 108 l -14.25,0.002 -14.25,0.002 -4.39527,12.24793 c -2.4174,6.73636 -5.26796,14.62575 -6.33459,17.53198 l -1.93932,5.28405 -10.08485,-0.28405 L 272.66112,142.5 266.58056,125.26183 260.5,108.02366 228.75,108.01183 197,108 v 9.5 9.5 h 22.5 22.5 v 8 8 h -31.83333 c -17.50834,0 -32.13334,-0.3 -32.5,-0.66667 z M 285.29445,112.75 286.8786,108 h -3.34736 -3.34736 l 1.59307,4.98166 c 0.87619,2.73991 1.66963,4.87741 1.7632,4.75 0.0936,-0.12741 0.88301,-2.36916 1.7543,-4.98166 z M 467.25044,86.739686 457.5,76.942717 457.19521,81.471359 456.89042,86 H 439.44521 422 V 96.5 107 h 17.5 17.5 v 4.73124 4.73124 l 10.00044,-9.96291 10.00043,-9.962914 z M 379,109.5 c 0,-0.825 -0.45,-1.5 -1,-1.5 -0.55,0 -1,0.675 -1,1.5 0,0.825 0.45,1.5 1,1.5 0.55,0 1,-0.675 1,-1.5 z M 177,96.5 V 86 H 162 147 V 96.5 107 h 15 15 z m 157,0 V 86 H 265.5 197 V 96.5 107 h 68.5 68.5 z m 23.15398,0 C 355.07691,88.045906 354.22603,86 352.78713,86 351.18443,86 351,87.08357 351,96.5 V 107 h 4.36685 4.36685 z m 24.77406,1.25 c 1.31217,-5.0875 2.58831,-9.8125 2.83585,-10.5 C 385.09734,86.323923 383.34456,86 378,86 c -6.16124,0 -7.12558,0.230367 -6.60821,1.578607 0.33317,0.868234 1.54134,5.242868 2.68481,9.721409 1.14347,4.478544 2.29558,8.493164 2.56024,8.921394 1.51185,2.44623 3.153,-0.18131 5.2912,-8.47141 z M 405,96.5 c 0,-9.41643 -0.18443,-10.5 -1.78713,-10.5 -1.4389,0 -2.28978,2.045906 -4.36685,10.5 L 396.2663,107 H 400.63315 405 Z M 353.98071,84.25 c -0.0106,-0.4125 -0.64537,-3 -1.41058,-5.75 l -1.3913,-5 -0.0894,5.75 c -0.0697,4.484186 0.24079,5.75 1.41058,5.75 0.825,0 1.49132,-0.3375 1.48071,-0.75 z m 50.92987,-5 -0.0894,-5.75 -1.3913,5 c -1.75049,6.290897 -1.74824,6.5 0.0701,6.5 1.16979,0 1.48032,-1.265814 1.41058,-5.75 z"
       style="fill:#a1a2a2" />
    <path
       id="path3926"
       d="M 50.762571,164.43461 C 46.3532,162.04211 45,158.1945 45,148.04966 V 139 h -8.535183 c -6.244419,0 -9.210436,-0.44244 -11.051112,-1.6485 C 20.332916,134.02244 20,132.0607 20,105.45079 20,78.69255 20.516622,75.667023 25.545246,72.975785 27.977479,71.674094 28,71.529652 28,57.232149 28,34.283463 29.268561,33 51.950789,33 c 10.817756,0 14.853495,0.364551 17.143093,1.548549 3.211416,1.660687 6.896267,6.839829 6.90238,9.701451 0.0033,1.532763 1.089923,1.750464 8.753738,1.753738 15.133443,0.0065 18.25,3.671903 18.25,21.464143 V 78 h 6.04966 c 3.41134,0 7.30986,0.651675 8.9393,1.494289 C 123.93604,82.569646 124,82.918944 124,112.32251 V 139.2 l -3.4,3.4 -3.4,3.4 H 105.2165 93.232991 l -0.422021,6.62773 c -0.389936,6.12382 -0.701795,6.88411 -4.101811,10 L 85.02937,166 69.264685,165.96 C 57.276488,165.9296 52.844239,165.56415 50.762571,164.43465 Z M 85.086657,160.7182 C 88.654322,157.97903 89,155.44226 89,132 c 0,-23.44226 -0.345678,-25.97903 -3.913343,-28.7182 -1.077852,-0.82754 -6.331227,-1.22839 -16.382112,-1.25 -14.395519,-0.0309 -14.861803,0.0345 -17.25,2.42275 L 49,106.90909 V 132 157.09091 l 2.454545,2.45454 c 2.388197,2.3882 2.854481,2.45369 17.25,2.42275 10.050885,-0.0216 15.30426,-0.42246 16.382112,-1.25 z m -25.204304,-6.60055 c -2.45262,-2.45262 -3.84914,-4.75428 -3.792165,-6.25 0.07604,-1.9961 0.234079,-1.87064 1.007107,0.79944 0.504305,1.74189 2.355432,4.37751 4.113615,5.85693 2.805785,2.36091 3.849663,2.63569 8.536353,2.24703 2.984813,-0.24752 4.769228,-0.0809 4.046197,0.37776 -0.711403,0.45131 -3.258901,0.82746 -5.661107,0.83588 -3.750095,0.0131 -4.916582,-0.53363 -8.25,-3.86704 z M 77.5,154 c 0.995486,-1.1 2.034975,-2 2.309975,-2 0.275,0 -0.314489,0.9 -1.309975,2 -0.995486,1.1 -2.034975,2 -2.309975,2 -0.275,0 0.314489,-0.9 1.309975,-2 z m 3.324504,-5.67418 c 0.426728,-2.09296 0.67819,-2.34442 0.969603,-0.9696 0.216399,1.02092 -0.04287,2.29254 -0.576149,2.82582 -0.626137,0.62614 -0.765512,-0.0314 -0.393454,-1.85622 z M 66.105192,146.62675 C 64.855286,145.1207 65.613578,142 67.229434,142 c 0.59888,0 0.519672,0.59738 -0.193079,1.4562 C 65.662151,145.11201 66.441919,147 68.5,147 c 2.120759,0 2.815929,-1.89619 1.390858,-3.7938 -1.206408,-1.60645 -1.172615,-1.60682 0.578008,-0.006 1.544331,1.41184 1.64137,1.96244 0.572787,3.25 -1.590469,1.9164 -3.437882,1.98262 -4.936461,0.17694 z m -10.091788,-4.67349 c 0.523431,-1.8251 1.375889,-3.74255 1.89435,-4.26101 0.518461,-0.51847 0.384717,0.68028 -0.29721,2.66387 -1.609509,4.68175 -2.83256,5.9048 -1.59714,1.59714 z M 80.319675,140.25 c -1.035845,-3.32085 -1.006628,-3.52786 0.25531,-1.80887 1.193782,1.62615 2.021311,5.55887 1.169705,5.55887 -0.14042,0 -0.781677,-1.6875 -1.425015,-3.75 z M 74,133.5 c -1.375,-0.78602 -2.023508,-1.44508 -1.44113,-1.46456 0.582379,-0.0195 1.932379,0.62525 3,1.43276 2.468977,1.86744 1.680384,1.88353 -1.55887,0.0318 z m -6.1875,-2.18311 c 0.721875,-0.28887 1.584375,-0.25335 1.916667,0.0789 0.332291,0.33229 -0.258334,0.56864 -1.3125,0.52522 -1.164943,-0.048 -1.4019,-0.28494 -0.604167,-0.60416 z m 5.456532,-5.00988 c 0.972967,-0.25354 2.322967,-0.23687 3,0.037 0.677032,0.27393 -0.119032,0.48137 -1.769032,0.46099 -1.65,-0.0204 -2.203936,-0.2445 -1.230968,-0.49804 z m -4.761953,-1.29556 c -0.350339,-0.56686 0.05106,-0.7345 0.940983,-0.39301 1.732417,0.66479 2.049387,1.38156 0.610955,1.38156 -0.517541,0 -1.215913,-0.44485 -1.551938,-0.98855 z M 81,124.62244 c 0,-0.20765 0.7875,-0.99515 1.75,-1.75 1.586056,-1.24387 1.621426,-1.2085 0.377555,0.37756 C 81.821186,124.91575 81,125.44548 81,124.62244 Z m -15.541119,-2.68897 c -0.362533,-0.58659 -0.444683,-1.281 -0.182555,-1.54313 0.262128,-0.26213 0.743066,0.21781 1.068751,1.06653 0.676184,1.76211 0.09985,2.07206 -0.886196,0.4766 z M 84.180248,116.45 c -0.09914,-2.7775 -0.628641,-5.59161 -1.176677,-6.25357 -0.548035,-0.66197 -0.295563,-0.59592 0.56105,0.14676 1.130119,0.97982 1.452989,2.69574 1.176677,6.25357 L 84.360496,121.5 Z M 53,113.55902 c 0,-1.34254 0.368575,-2.66878 0.819056,-2.94719 0.450481,-0.27841 0.624406,0.82003 0.386501,2.44098 C 53.681021,116.6267 53,116.91266 53,113.55902 Z m 7.783522,-5.29742 c 2.905937,-0.20265 7.405937,-0.20052 10,0.005 2.594063,0.20525 0.216478,0.37104 -5.283522,0.36844 -5.5,-0.003 -7.622415,-0.17053 -4.716478,-0.37317 z m 16.48551,0.0454 c 0.972967,-0.25354 2.322967,-0.23687 3,0.037 0.677032,0.27393 -0.119032,0.48137 -1.769032,0.46099 -1.65,-0.0204 -2.203936,-0.2445 -1.230968,-0.49804 z m 40.416518,31.51868 C 119.98752,137.6631 120,137.51376 120,112.14014 120,87.323461 119.9408,86.56589 117.82569,84.314451 115.99733,82.368256 114.64488,82 109.32569,82 H 103 v 11 c 0,6.05 0.007,11.3375 0.0149,11.75 0.008,0.4125 1.99129,0.75 4.40689,0.75 2.4156,0 4.18234,0.3375 3.92609,0.75 -0.25625,0.4125 -2.40925,0.75 -4.78444,0.75 -4.31904,0 -7.342614,1.93024 -6.12066,3.90741 0.33823,0.54725 -1.198031,1.5382 -3.413906,2.20209 L 93,114.31658 v 10.30652 c 0,9.51652 0.164479,10.39456 2.14581,11.45494 1.202086,0.64333 4.31791,0.93969 7.08466,0.67384 2.89262,-0.27795 4.38589,-0.12404 3.60419,0.37146 -1.86465,1.18199 -8.578064,1.08435 -10.900401,-0.15852 C 93.219392,136.04705 93,136.2739 93,138.96482 V 142 h 11.18555 c 10.10816,0 11.40847,-0.20943 13.5,-2.17431 z m -4.97937,-12.87766 c 0.31295,-2.44642 0.73208,-4.63553 0.93141,-4.8647 0.81588,-0.93802 0.26117,6.52828 -0.58431,7.8647 -0.59265,0.93678 -0.7152,-0.12241 -0.3471,-3 z M 100.25,127.36926 c 2.41206,-0.71109 2.21864,-4.12491 -0.265325,-4.68276 -1.676442,-0.3765 -1.634403,-0.43023 0.249995,-0.31955 3.05073,0.17918 3.29152,4.99982 0.26533,5.31194 -1.554351,0.16031 -1.610057,0.0913 -0.25,-0.30963 z m 15.51761,-29.804614 c -0.25605,-1.339445 -0.0904,-3.026945 0.36811,-3.75 0.5314,-0.837996 0.83921,0.04499 0.84897,2.435354 0.0175,4.28708 -0.53482,4.88368 -1.21708,1.314646 z m -10.95511,-9.24776 c 0.72187,-0.288871 1.58437,-0.253344 1.91667,0.07895 0.33229,0.332292 -0.25834,0.568641 -1.3125,0.52522 -1.16495,-0.04798 -1.4019,-0.284941 -0.60417,-0.604167 z m 3.9375,0.02083 c 0.6875,-0.277412 1.8125,-0.277412 2.5,0 0.6875,0.277413 0.125,0.504386 -1.25,0.504386 -1.375,0 -1.9375,-0.226973 -1.25,-0.504386 z M 44.817286,133.28976 c -0.199785,-1.0374 -1.697684,-1.99009 -3.807399,-2.42157 -4.178578,-0.85461 -10.049875,-6.8347 -9.919699,-10.1035 0.07165,-1.79911 0.27869,-1.6136 1.007107,0.9024 C 33.291362,125.79146 38.331478,130 42.076725,130 44.85059,130 45,129.78212 45,125.73713 c 0,-3.46161 -0.422918,-4.44842 -2.25,-5.25 C 41.5125,119.94421 40.5,118.825 40.5,118 c 0,-0.825 1.0125,-1.94421 2.25,-2.48713 1.827082,-0.80158 2.25,-1.78839 2.25,-5.25 C 45,106.35335 44.787326,106 42.434259,106 c -1.411158,0 -3.548658,0.47482 -4.75,1.05517 -2.109982,1.01928 -2.11825,1.00228 -0.243129,-0.5 C 38.508751,105.69982 40.819496,105 42.57612,105 c 2.303301,0 3.650609,-0.69709 4.831923,-2.5 1.555566,-2.37409 1.539149,-2.5 -0.325973,-2.5 -3.947995,0 -2.765115,-1.503201 1.263422,-1.605553 2.284979,-0.05805 6.742008,-0.45851 9.904508,-0.889902 L 64,96.720194 V 88.496461 C 64,80.944381 63.784681,80.057409 61.363636,77.636364 58.750924,75.023651 58.593521,75 43.818182,75 29.32211,75 28.841094,75.067997 26.454545,77.454545 L 24,79.909091 V 105 130.09091 l 2.454545,2.45454 C 28.6575,134.74841 29.741265,135 37.02787,135 c 7.121987,0 8.078341,-0.20998 7.789416,-1.71024 z M 31.085953,115.36078 c -0.04727,-1.17656 0.701547,-2.99777 1.664047,-4.04713 0.9625,-1.04935 1.381277,-1.35297 0.930615,-0.67471 -0.450662,0.67826 -1.199483,2.49946 -1.664047,4.04713 -0.68499,2.28199 -0.860911,2.40954 -0.930615,0.67471 z m 9.259124,-20.903908 c -0.325685,-0.848721 -0.368713,-1.766569 -0.09562,-2.039663 0.273094,-0.273095 0.736558,0.421313 1.029919,1.543128 0.62315,2.382929 -0.06922,2.750891 -0.934299,0.496535 z m 18.50836,-4.237823 c 0.283983,-4.495215 7.87e-4,-5.852475 -1.44113,-6.90683 C 56.425296,82.590499 56.063749,82 56.60887,82 58.813663,82 60,84.673086 60,89.640983 c 0,2.882541 -0.3375,5.450614 -0.75,5.70683 -0.4125,0.256216 -0.590953,-2.051728 -0.396563,-5.128764 z M 31.75,91.337719 c 0.6875,-0.277412 1.8125,-0.277412 2.5,0 0.6875,0.277413 0.125,0.504386 -1.25,0.504386 -1.375,0 -1.9375,-0.226973 -1.25,-0.504386 z M 28.136182,86.95 C 27.998806,84.377643 29.562262,82 31.39113,82 c 0.545121,0 0.261954,0.5625 -0.62926,1.25 -0.891213,0.6875 -1.81594,2.375 -2.054947,3.75 l -0.434559,2.5 z m 8.640251,-5.683497 c 2.352038,-0.211245 5.952038,-0.208273 8,0.0066 C 46.824395,81.487985 44.9,81.660822 40.5,81.65719 36.1,81.653557 34.424395,81.477749 36.776433,81.266503 Z M 51.75,81.337719 c 0.6875,-0.277412 1.8125,-0.277412 2.5,0 0.6875,0.277413 0.125,0.504386 -1.25,0.504386 -1.375,0 -1.9375,-0.226973 -1.25,-0.504386 z M 45,118 c 0,-1.1 -0.648442,-2 -1.440983,-2 -1.76659,0 -2.896057,1.64564 -2.059017,3 1.08749,1.7596 3.5,1.07031 3.5,-1 z m 52.915361,-12.79566 c 0.837077,-2.02088 1.100004,-9.912266 0.88715,-26.626469 L 98.5,54.823501 95.694236,52.41175 C 93.008075,50.102806 92.270817,50 78.398782,50 64.347999,50 63.83474,50.074351 61.454545,52.454545 59.27354,54.63555 59,55.767145 59,62.608618 v 7.699526 l 4.000745,3.424489 c 2.969109,2.541447 4.16169,4.430987 4.624901,7.327751 0.395218,2.471554 1.036841,3.67272 1.749256,3.274735 0.633303,-0.35379 0.578707,-0.03987 -0.124902,0.718177 C 68.5625,85.793983 68,88.720698 68,91.557107 v 5.157107 l 7.75,0.579952 c 10.480561,0.784286 13.527616,2.127429 15.581532,6.868344 C 92.249189,106.28067 93,108.47647 93,109.04204 c 0,1.98064 3.702819,-0.91037 4.915361,-3.8377 z m -7.090857,-8.878517 c 0.426728,-2.092959 0.67819,-2.344421 0.969603,-0.969603 0.216399,1.020921 -0.04287,2.292541 -0.576149,2.825822 -0.626137,0.626137 -0.765512,-0.0314 -0.393454,-1.856219 z M 79,95.622445 c 0,-0.207656 0.7875,-0.995156 1.75,-1.75 C 82.336056,92.628574 82.371426,92.663944 81.127555,94.25 79.821186,95.915748 79,96.445479 79,95.622445 Z m -4,-2.5 c 0,-1.008568 2.892189,-3.605677 3.357499,-3.014946 C 78.527541,90.323375 77.841667,91.2875 76.833333,92.25 75.825,93.2125 75,93.6051 75,93.122445 Z M 91.157895,91 c 0,-1.375 0.226973,-1.9375 0.504386,-1.25 0.277412,0.6875 0.277412,1.8125 0,2.5 -0.277413,0.6875 -0.504386,0.125 -0.504386,-1.25 z M 84,82 C 83.098708,81.41754 82.975367,81.024514 83.690983,81.015313 84.346024,81.006891 85.160081,81.45 85.5,82 c 0.767305,1.241525 0.421123,1.241525 -1.5,0 z m -9.948027,-1.053283 c 1.336416,-0.845481 8.802714,-1.400186 7.864694,-0.584304 -0.229167,0.199328 -2.418279,0.61846 -4.864694,0.931405 -2.877588,0.368101 -3.936781,0.245552 -3,-0.347101 z M 81,74.436902 c 3.507914,-0.774304 9.793767,-0.912226 9.356866,-0.205306 -0.261195,0.422622 -2.810842,0.716203 -5.665883,0.652403 C 81.835942,74.820198 80.175,74.619004 81,74.436902 Z M 76.872445,72.25 C 75.628574,70.663944 75.663944,70.628574 77.25,71.872445 c 0.9625,0.754844 1.75,1.542344 1.75,1.75 0,0.823034 -0.821186,0.293303 -2.127555,-1.372445 z M 94.286014,64.5 c 0.0075,-2.75 0.201713,-3.756313 0.431567,-2.23625 0.229855,1.520062 0.223712,3.770062 -0.01365,5 C 94.466569,68.493687 94.278507,67.25 94.286014,64.5 Z M 64.2,65.8 c -0.66,-0.66 -1.168372,-1.8975 -1.129715,-2.75 0.0492,-1.084891 0.302045,-0.956826 0.842637,0.426784 0.424794,1.087231 1.855666,2.279875 3.179715,2.65032 C 69.182902,66.711922 69.229974,66.81377 67.45,66.90032 66.3225,66.955144 64.86,66.46 64.2,65.8 Z M 63.214217,60 C 64.091594,57.034024 68.268312,56.025942 79,56.189984 l 10.5,0.160501 -11.831896,0.574757 C 67.410874,57.423507 65.632204,57.766173 64.303351,59.5 63.409774,60.665899 62.95555,60.874424 63.214217,60 Z M 44.44113,69.468197 C 45.508751,68.660688 46.832259,68 47.382259,68 c 0.55,0 0.126492,0.678373 -0.941129,1.507495 -1.796981,1.395549 -1.575634,1.488374 2.980701,1.25 5.730791,-0.299817 7.685197,-2.664336 2.411502,-2.917532 L 48.5,67.679926 51.75,67.276604 c 2.667116,-0.330986 3.25,-0.84033 3.25,-2.839962 0,-1.340153 -0.5625,-2.472168 -1.25,-2.515589 -1,-0.06316 -1,-0.179825 0,-0.583334 0.6875,-0.277412 1.25,-1.859954 1.25,-3.51676 0,-4.101904 2.690522,-8.339353 6.648288,-10.470751 2.33956,-1.259936 2.937053,-2.0262 2.070222,-2.654985 -0.757912,-0.549777 -0.462508,-0.605769 0.78149,-0.148126 1.1,0.404669 3.2375,0.948193 4.75,1.207832 3.74671,0.643167 3.668556,-1.990219 -0.173077,-5.831852 L 66.153846,37 H 52.511182 C 32.180045,37 32.075657,37.10067 32.031803,56.75 L 32,71 37.25,70.9682 c 3.021741,-0.0183 6.073874,-0.654951 7.19113,-1.5 z m 4.581194,-11.671886 c -1.071554,-1.762029 -1.73994,-3.412029 -1.485302,-3.666666 0.527412,-0.527412 0.40603,-0.692217 2.666468,3.620355 2.194483,4.186742 1.356755,4.219588 -1.181166,0.04631 z M 37.050187,52.560472 C 36.393101,51.768731 36.000501,49.866658 36.177742,48.333643 36.671321,44.064534 39.929075,43.005471 52,43.189984 l 10.5,0.160501 -11.701932,0.574757 c -6.573063,0.322846 -12.195558,1.06923 -12.828178,1.702936 -2.015106,2.018563 -0.740049,6.71818 2.03011,7.482596 2.205359,0.608561 2.249254,0.701614 0.372445,0.789546 -1.170156,0.05482 -2.665172,-0.548108 -3.322258,-1.339848 z M 504.24086,163.0054 c -1.79253,-1.09292 -4.15334,-3.45373 -5.24626,-5.24626 -1.92395,-3.15552 -1.98724,-5.15129 -1.99086,-62.774742 -0.004,-67.021904 -0.31877,-64.177847 7.60036,-68.717948 3.86,-2.212968 4.28152,-2.233701 45.74477,-2.25 46.72462,-0.01837 46.52061,-0.04569 51.21219,6.858603 L 604,34.464269 603.996,94.482135 c -0.004,58.124635 -0.0664,60.120675 -1.99086,63.277005 -1.09292,1.79253 -3.45373,4.15334 -5.24626,5.24626 -3.1187,1.90149 -5.11212,1.98712 -46.25914,1.98712 -41.14702,0 -43.14044,-0.0856 -46.25914,-1.98712 z M 592.8,153.8 c 0.90562,-0.90562 1.2,-15.3619 1.2,-58.928571 0,-51.147187 -0.17915,-57.907724 -1.57143,-59.3 C 591.05225,34.195108 585.87837,34 550.75731,34 514.84732,34 510.4664,34.172922 508.82874,35.654988 507.0979,37.221381 507,40.356508 507,94.220729 c 0,37.317681 0.35639,57.576671 1.03518,58.845011 0.99778,1.86437 2.52615,1.93426 42.3,1.93426 30.76153,0 41.57026,-0.30544 42.46482,-1.2 z m -50.41236,-11.06711 c -7.50633,-2.97346 -13.77281,-9.39421 -16.23248,-16.63211 -0.63534,-1.86958 -1.14528,-6.14458 -1.1332,-9.5 0.0546,-15.1562 11.65016,-26.581242 26.97804,-26.581242 27.21851,0 37.38723,34.604552 14.71506,50.075942 -4.30018,2.93442 -5.62314,3.29755 -13.00119,3.56857 -4.88628,0.17949 -9.47474,-0.19774 -11.32623,-0.93116 z m 22.75362,-5.26456 c 2.36659,-1.6633 5.66545,-4.96288 7.33081,-7.3324 C 575.28862,126.12847 575.5,125.21145 575.5,117 c 0,-8.21145 -0.21138,-9.12847 -3.02793,-13.13593 -4.66204,-6.633274 -10.0398,-9.923852 -17.2934,-10.581585 C 539.4146,91.853049 528,101.82293 528,117.02122 c 0,7.03804 1.52442,11.22859 5.89583,16.20736 5.19774,5.91989 10.30646,7.92625 19.27336,7.56926 6.64987,-0.26475 8.24108,-0.70727 11.97207,-3.32951 z m -16.12465,-13.76147 c -3.51792,-1.76983 -4.86196,-6.10688 -2.95175,-9.52493 1.18755,-2.12494 2.35539,-2.74484 5.62322,-2.98485 3.35617,-0.24649 4.42124,0.12091 5.71815,1.97251 2.07822,2.96707 2.02126,6.11445 -0.15623,8.63273 -2.36917,2.73996 -5.24877,3.40607 -8.23339,1.90454 z m 6.43868,-4.56598 C 556.35637,116.30181 555.04007,114 552.51546,114 c -2.93978,0 -4.85542,2.35352 -4.03069,4.95201 0.86637,2.72971 6.11892,2.87202 6.97052,0.18887 z M 543.22961,77.998559 C 539.95076,75.999438 538.64662,73.87574 537.55016,68.75 536.97122,66.043566 536.8418,66 529.38095,66 522.09281,66 521.66868,65.868676 518.4,62.6 513.27418,57.474175 513.99941,50.203706 519.9895,46.665271 522.43674,45.219653 526.4572,45 550.47003,45 c 35.95264,0 35.47128,-0.230833 35.50773,17.027494 0.0354,16.739454 -1.62617,17.974278 -24.1781,17.968768 -13.52012,-0.0033 -15.68005,-0.235661 -18.57005,-1.997703 z m 37.84731,-2.921636 C 583.92275,72.231098 584,71.886268 584,62.029174 584,52.36504 583.87964,51.792957 581.35398,49.452251 L 578.70795,47 h -27.41971 c -27.86966,0 -30.2154,0.278119 -33.00644,3.913343 -2.12149,2.763164 -1.51613,7.517473 1.29395,10.162343 2.2014,2.071972 3.83644,2.496982 11.25,2.924314 l 8.67425,0.5 0.58889,4.413045 c 0.41323,3.096624 1.39934,5.110164 3.30577,6.75 C 545.99762,77.90202 546.78323,78 562.13269,78 h 16.02116 z M 178,125.5 V 108 H 162 146 V 96.5 85 h 16 16 V 68.5 52 h 9 9 V 68.5 85 h 28 c 15.4,0 28,-0.203123 28,-0.451384 0,-0.248261 -2.475,-7.410304 -5.5,-15.91565 C 243.475,60.127619 241,52.905742 241,52.58435 241,52.262957 245.4185,52 250.81888,52 h 9.81889 l 5.5495,16.25 5.5495,16.25 11.53797,0.280925 11.53798,0.280925 5.4247,-16.280925 5.4247,-16.280925 9.66894,-0.286212 C 320.64898,52.056371 325,52.142521 325,52.405232 c 0,0.262711 -2.475,7.361385 -5.5,15.77483 C 316.475,76.593508 314,83.819858 314,84.238618 314,84.657378 318.5,85 324,85 h 10 V 67.97178 50.943561 L 347.75,51.22178 361.5,51.5 365.97397,68.25 370.44794,85 h 7.60148 7.60149 L 390.07545,68.25 394.5,51.5 408.25,51.22178 422,50.943561 V 67.97178 85 h 17 17 V 79.267054 73.534108 L 467,84.5 c 6.05,6.03124 11,11.43124 11,12 0,0.56876 -4.95,5.96876 -11,12 l -11,10.96589 V 113.73295 108 H 439 422 V 125.5 143 H 413.5 405 V 125.5 108 h -4.77894 -4.77893 l -4.32873,17.5 -4.32873,17.5 H 378 369.21533 L 364.8866,125.5 360.55787,108 H 355.77894 351 V 125.5 143 H 342.5 334 V 125.5 108 h -14.39031 -14.39031 l -6.24765,17.5 -6.24766,17.5 h -9.79018 -9.79019 l -1.93349,-5.25 c -1.06342,-2.8875 -3.88708,-10.7625 -6.27479,-17.5 L 260.59413,108 H 228.29706 196 v 9.5 9.5 h 23 23 v 8 8 h -32 -32 z m 108.44376,-15.25 c 0.62713,-2.04199 0.36122,-2.25 -2.87637,-2.25 -1.96207,0 -3.56739,0.14484 -3.56739,0.32186 0,0.17702 0.75513,2.53805 1.67807,5.24672 l 1.67807,4.92486 1.1983,-2.99672 c 0.65907,-1.6482 1.50926,-4.00922 1.88932,-5.24672 z M 467.5,86.55177 457.5,77.202639 457,81.35132 456.5,85.5 439.25,85.773614 422,86.047228 V 96.5 106.95277 l 17.25,0.27362 17.25,0.27361 0.31618,4.42772 0.31618,4.42772 10.18382,-10.22727 L 477.5,95.9009 Z m -88.9116,21.70329 c -1.0924,-1.0924 -1.84148,0.64486 -1.05718,2.45181 0.74368,1.71337 0.79759,1.71181 1.21194,-0.0351 0.2385,-1.00555 0.16886,-2.09305 -0.15476,-2.41667 z M 178,96.5 V 86 H 162.5 147 V 96.5 107 h 15.5 15.5 z m 156,0 V 86 H 265 196 V 96.5 107 h 69 69 z m 25.60978,8.75 c -0.28875,-0.9625 -1.49933,-5.6875 -2.69017,-10.5 C 355.15687,87.626375 354.40551,86 352.87721,86 351.16012,86 351,86.895597 351,96.5 V 107 h 4.56739 c 3.88322,0 4.48874,-0.26214 4.04239,-1.75 z m 22.7478,-8.083177 C 383.81091,91.758575 385,87.033575 385,86.666823 385,86.30007 381.79752,86 377.88337,86 c -6.90004,0 -7.09748,0.06848 -6.4872,2.25 0.34618,1.2375 1.57892,5.9625 2.73941,10.5 1.62458,6.35207 2.50908,8.25 3.84478,8.25 1.34962,0 2.32148,-2.18322 4.37722,-9.833177 z M 405,96.5 c 0,-9.604403 -0.16012,-10.5 -1.87721,-10.5 -1.5283,0 -2.27966,1.626375 -4.0424,8.75 -1.19084,4.8125 -2.40142,9.5375 -2.69017,10.5 -0.44635,1.48786 0.15917,1.75 4.04239,1.75 H 405 Z M 353.98071,83.75 c -0.0106,-0.6875 -0.64537,-3.5 -1.41058,-6.25 l -1.3913,-5 -0.0894,6.25 c -0.0705,4.92863 0.22771,6.25 1.41058,6.25 0.825,0 1.49132,-0.5625 1.48071,-1.25 z m 50.92987,-5 -0.0894,-6.25 -1.3913,5 c -1.7786,6.391893 -1.76824,7.5 0.0701,7.5 1.18287,0 1.4811,-1.32137 1.41058,-6.25 z"
       style="fill:#656565" />
    <path
       id="path3924"
       d="m 52.096399,164.73526 c -5.043695,-2.59206 -6.569918,-6.15712 -6.939657,-16.21018 l -0.343257,-9.33305 -8.803198,-0.34601 C 28.941979,138.56819 26.765334,138.10585 24.965528,136.5 20.466001,132.48536 20,129.52917 20,105 20,79.923208 20.563439,76.642602 25.416474,73.462771 27.989662,71.776754 28,71.714288 28,57.852871 28,34.692523 29.153194,33.5 51.549706,33.5 c 10.67505,0 15.873933,0.391802 17.626261,1.328364 C 72.044248,36.361366 75,40.908458 75,43.787985 c 0,1.815277 0.838562,2.013081 10.113406,2.385608 l 10.113405,0.406208 3.386595,3.695414 L 102,53.97063 V 65.876015 77.7814 l 7.59924,0.383745 c 7.28895,0.368075 7.7381,0.535264 11,4.094614 L 124,85.97063 v 25.61039 c 0,21.91284 -0.23613,26.01014 -1.63554,28.37915 C 119.37,145.02939 116.35382,146 103.59571,146 H 92 v 5.59571 c 0,6.35697 -1.866884,10.30373 -6.039833,12.76875 -2.220325,1.31158 -5.610307,1.63262 -17.114459,1.6208 -9.393952,-0.01 -15.175367,-0.44112 -16.749309,-1.25 z M 86.611559,159.8952 89,157.65137 v -25.73679 -25.73679 l -3.076725,-2.5889 C 82.934846,101.0743 82.445968,101 68.888091,101 c -15.910992,0 -18.177669,0.78198 -19.863898,6.85281 -1.331026,4.79202 -1.310164,43.57731 0.02603,48.38864 1.575584,5.67334 3.641238,6.2856 20.506114,6.07806 13.69129,-0.16849 14.825639,-0.32973 17.055224,-2.42431 z M 118.07692,140.07692 121,137.15385 V 112 86.846154 l -2.97153,-2.971533 c -2.75347,-2.753468 -3.43228,-2.949631 -9.25,-2.673077 L 102.5,81.5 102.21763,93.948046 c -0.25876,11.407324 -0.48539,12.714214 -2.710675,15.631724 -1.335569,1.75102 -3.58016,3.47277 -4.987979,3.82611 l -2.559672,0.64244 0.105241,13.70869 c 0.05788,7.53978 0.318597,14.05391 0.579365,14.47584 0.260768,0.42193 5.432182,0.76715 11.49203,0.76715 10.84435,0 11.06395,-0.046 13.94098,-2.92308 z M 45.177955,121.06938 c 0.286513,-13.28328 0.552633,-15.24168 2.41198,-17.75 2.816053,-3.798935 6.945086,-5.661237 12.118083,-5.46557 L 64,98.016152 V 88.59697 C 64,79.306644 63.95791,79.142371 60.923275,76.588894 57.937445,74.076483 57.437482,74 44,74 30.562518,74 30.062555,74.076483 27.076725,76.588894 L 24,79.177787 v 25.774743 25.77474 l 2.636364,2.63637 C 29.033702,135.76097 29.979151,136 37.064318,136 H 44.85591 Z M 97.718197,107 c 0.883972,-1.08846 1.226922,-8.440051 1.25,-26.795455 L 99,54.909091 96.611728,52.520819 c -3.153195,-3.153195 -7.265672,-3.811145 -21.080283,-3.37261 -10.994923,0.349026 -11.620252,0.486052 -14.258654,3.124454 -2.457575,2.457576 -2.79837,3.617119 -3.115497,10.600392 l -0.356077,7.840971 3.412118,2.108805 c 4.905058,3.031493 5.951244,5.725694 6.129274,15.784468 L 67.5,97.5 76,98.032961 c 11.454928,0.718239 13.405854,2.064519 16.418098,11.329659 0.524842,1.61433 0.837277,1.68098 2.343735,0.5 C 95.717825,109.11318 97.048188,107.825 97.718197,107 Z M 55.001554,63.75 c 0.001,-4.898484 0.568657,-8.385215 1.75,-10.75 1.991787,-3.987114 7.150574,-6.996128 11.998446,-6.998446 2.606901,-0.0012 3.25,-0.406302 3.25,-2.047009 0,-1.125 -1.104545,-3.15 -2.454545,-4.5 C 67.154267,37.063358 66.697761,37 51.859906,37 31.199697,37 32,36.227324 32,56.174314 V 71 H 43.5 55 l 0.0016,-7.25 z M 506.5,164.05731 c -3.34454,-1.36444 -7.44185,-6.12603 -8.55734,-9.94469 -0.70299,-2.40657 -0.95303,-22.97555 -0.74898,-61.61262 0.34078,-64.525144 -0.0899,-60.584272 7.18828,-65.77587 3.10714,-2.216354 3.269,-2.22413 46.29431,-2.22413 42.04787,0 43.24846,0.05389 45.93822,2.061789 1.51906,1.133983 3.68974,3.304587 4.82372,4.823563 2.02939,2.718374 2.06179,3.715319 2.06179,63.438212 V 155.5 l -2.40993,3.21195 c -4.74044,6.31806 -4.5494,6.29463 -50.7412,6.22466 C 527.33199,164.90175 507.6,164.50606 506.5,164.05731 Z M 593,154 c 1.95303,-1.95303 2,-3.33333 2,-58.777494 0,-49.769598 -0.19214,-57.051812 -1.5567,-59 L 591.88659,34 h -41.11455 c -36.85421,0 -41.30406,0.171492 -42.9433,1.654988 C 506.09781,37.221458 506,40.360248 506,94.340536 V 151.3711 l 2.17431,2.31445 2.17432,2.31445 h 40.32568 c 38.99236,0 40.39182,-0.0661 42.32569,-2 z m -50.32107,-11.54272 c -5.77569,-2.11887 -10.95022,-6.71299 -14.22982,-12.63373 -2.53951,-4.58465 -2.94561,-6.36454 -2.92578,-12.82355 0.026,-8.45619 2.01058,-13.38007 7.67682,-19.046305 8.02863,-8.028625 21.60115,-9.929387 31.6701,-4.435234 15.78688,8.614159 18.86877,29.402869 6.27561,42.331789 -7.33299,7.52851 -18.73905,10.1758 -28.46693,6.60703 z m 21.82343,-3.9058 c 8.62078,-5.05211 13.11481,-13.80862 12.2097,-23.79033 -1.70423,-18.794581 -23.00394,-28.970956 -38.43614,-18.363659 -2.62676,1.805496 -6.12592,5.456879 -7.77592,8.114199 -2.64441,4.25879 -3,5.72975 -3,12.40989 0,6.48137 0.40132,8.26112 2.7723,12.29453 5.17936,8.81093 13.22793,13.07584 23.4379,12.41969 4.41076,-0.28346 7.53784,-1.17716 10.79216,-3.08432 z m -16.91771,-16.45794 c -2.62328,-2.8987 -1.75266,-8.1592 1.66535,-10.06234 2.46935,-1.37493 3.03065,-1.37493 5.5,0 5.50855,3.06715 3.46328,11.9688 -2.75,11.9688 -1.47951,0 -3.46642,-0.85791 -4.41535,-1.90646 z m 7.84542,-2.29716 c 1.3163,-1.87928 1.34349,-2.50482 0.18473,-4.25 C 554.86749,114.42087 553.24083,113.5 552,113.5 c -1.24083,0 -2.86749,0.92087 -3.6148,2.04638 -1.15876,1.74518 -1.13157,2.37072 0.18473,4.25 C 549.41884,121.00837 550.96237,122 552,122 c 1.03763,0 2.58116,-0.99163 3.43007,-2.20362 z M 542.12623,76.452765 c -2.0194,-1.699216 -3.30303,-3.946411 -3.8557,-6.75 L 537.44204,65.5 529.32522,65.211241 C 522.35865,64.963403 520.83936,64.580462 518.6042,62.50899 517.17189,61.181569 516,59.598917 516,58.991985 c 0,-0.606932 1.08448,0.159081 2.40995,1.702251 2.22162,2.586497 3.09978,2.844838 11.23698,3.305764 l 8.82703,0.5 0.57787,3.5 c 0.74026,4.483595 2.48901,7.683896 4.90535,8.977082 2.51673,1.346916 33.57972,1.341128 36.09821,-0.0067 C 583.56892,75.089972 585,70.631444 585,61.565436 c 0,-8.015984 -0.17708,-8.732074 -2.91797,-11.799659 L 579.16406,46.5 h -28.50147 -28.50146 l -2.60248,2.444899 c -1.43136,1.344694 -3.00203,3.819694 -3.49037,5.5 -0.48835,1.680305 -0.92849,2.245254 -0.97809,1.255441 -0.16504,-3.293167 2.98968,-7.835767 6.44411,-9.279118 4.92074,-2.056015 53.01066,-2.056015 57.9314,0 5.05806,2.113393 6.5343,5.870265 6.5343,16.629118 0,9.072162 -0.0288,9.178458 -3.4,12.54966 l -3.4,3.4 h -17.02327 c -16.78339,0 -17.06594,-0.03589 -20.0505,-2.547235 z M 177.96429,125 c -0.0197,-9.35 -0.0357,-22.175 -0.0357,-28.5 0,-6.325 0.0161,-18.7 0.0357,-27.5 L 178,53 h 9 9 l 0.0441,16.25 c 0.0243,8.9375 0.0198,25.8125 -0.01,37.5 l -0.054,21.25 h 23.00988 23.00988 v 7 7 h -32 -32 l -0.0357,-17 z m 94.54989,15.25 C 272.12929,139.2875 269.64791,132.425 267,125 c -2.64791,-7.425 -5.12929,-14.2875 -5.51418,-15.25 -0.63677,-1.59238 0.14906,-1.75 8.72457,-1.75 h 9.42437 l 1.73372,5.5 c 0.95355,3.025 1.91273,5.5 2.13152,5.5 0.21879,0 1.17797,-2.475 2.13152,-5.5 l 1.73372,-5.5 h 8.7742 8.7742 l -3.34176,9.25 c -1.83797,5.0875 -4.57689,12.7375 -6.08649,17 l -2.74473,7.75 h -9.76334 c -8.36517,0 -9.86356,-0.25061 -10.46314,-1.75 z M 334,97 V 52 l 13.75,0.0025 13.75,0.0025 4.14482,15.747454 c 2.27966,8.6611 5.56044,20.922454 7.29062,27.247454 1.73019,6.325002 3.39482,12.850002 3.69917,14.500002 0.87104,4.72227 1.91187,4.91182 2.64637,0.48194 0.22634,-1.36507 0.68824,-3.15694 1.02645,-3.98194 0.50287,-1.22663 2.22682,-7.787188 5.25552,-20.000002 0.20459,-0.825 2.29913,-8.811354 4.65452,-17.747454 L 394.5,52.005092 408.25,52.002546 422,52 l 0.0357,16.5 c 0.0197,9.075 0.0357,21.675 0.0357,28 0,6.325 -0.0161,19.15 -0.0357,28.5 L 422,142 h -8.5 -8.5 l -0.0669,-35.25 C 404.8723,74.705031 404.73629,71.909153 403.43729,76 c -0.7859,2.475 -1.65188,5.85 -1.9244,7.5 -0.27251,1.65 -1.5949,7.05 -2.93864,12 -1.34374,4.95 -4.56272,17.4375 -7.15329,27.75 L 386.71085,142 h -8.85543 C 372.98494,142 369,141.76495 369,141.47768 369,140.57638 355.95065,88.577854 355.32849,87 c -0.3253,-0.825 -0.74703,-2.625 -0.93717,-4 -0.19014,-1.375 -0.9859,-4.525 -1.76834,-7 -1.55688,-4.92467 -1.42858,-8.887835 -1.5782,48.75 L 351,142 H 342.5 334 Z M 252.56203,84.100362 c -0.30581,-0.494801 -2.7656,-7.132301 -5.46621,-14.75 -2.70061,-7.617699 -5.23162,-14.654817 -5.62446,-15.638039 -0.66126,-1.655035 0.0144,-1.766332 9.10619,-1.5 l 9.82044,0.287677 5.24692,15 c 2.88581,8.25 5.27126,15.5625 5.301,16.25 0.0643,1.486221 -17.47529,1.820493 -18.38388,0.350362 z M 300.65079,68.536679 306.17365,52 h 9.37064 9.37065 l -4.55977,12.75 c -2.50788,7.0125 -5.12041,14.325 -5.80564,16.25 l -1.24586,3.5 -9.08787,0.286679 -9.08786,0.28668 z"
       style="fill:#030303" />
  </g>
</svg>
