<svg xmlns="http://www.w3.org/2000/svg" width="648" height="201"><path fill="#fdfdfd" d="M0 100.5V0h648v201H0z"/><path fill="#cee1f1" d="M0 100.5V0h648v201H0zm647 0V1H1v199h646zM50.3 165.04c-4.9-2.98-6.3-6.67-6.3-16.5V140h-8.47c-8.32 0-8.52-.06-11.92-3.46-4.4-4.47-4.9-7.87-4.4-35.58.4-22.8.9-25.5 5.5-28.47C27 71 27 70.5 27 56.8c0-12.5.3-14.5 2.1-17.87 3.4-6 6.8-7 23-7 15.2 0 18 .7 21.86 5.6 1.2 1.46 2.1 3.7 2.1 5 0 2.3.27 2.38 8.6 2.38 9.35 0 12.9 1.2 16.35 5.6 1.9 2.4 2.1 4 2.1 14.4v11.8l7.6.4c7.3.4 7.8.6 11 4.1l3.4 3.7v54.3l-3.9 3.9-3.9 3.9H93v6.1c0 5.8-.22 6.4-3.88 10l-3.88 3.9H69.37c-13.98 0-16.25-.2-19.07-1.9zm33.8-4.32c3.56-2.75 3.9-5.27 3.9-29.1 0-23.4 0-23.52-2.4-26.3-2.33-2.7-2.83-2.83-13.14-3.16-15.32-.5-19.1.24-21.55 4.16-1.8 2.97-1.9 4.74-1.6 27.02l.3 23.84 2.8 2.4c2.7 2.3 3.5 2.42 16.5 2.4 9.2-.03 14.3-.44 15.3-1.26zm-22.8-3.8c-4.05-2.6-7.7-9.87-6.85-13.7 3.1-14.15 20.53-16.74 27.15-4.02 6.12 11.78-8.97 24.97-20.3 17.72zm12.6-1.37c4-2.07 6.1-5.8 6.1-10.88 0-11.23-13.67-15.27-20.83-6.16C52 147.7 63.5 161 73.9 155.6zm-9.04-8.95c-.9-1.98-.87-2.9.16-4.12 2.8-3.4 8.7.56 6.37 4.27-1.8 2.85-5.2 2.77-6.6-.15zm5.14-1.66c0-.52-.67-.94-1.5-.94-1.55 0-2 1.18-.86 2.3.8.8 2.36-.1 2.36-1.36zm-1.66-18.82c-1.74-1.1-3.46-2.9-3.82-4.05-.5-1.57-1.5-2.07-4.15-2.07-6.43 0-10.22-4.04-8.12-8.64C53.82 107.9 57.4 107 69.4 107c10.1 0 11.63.24 14.08 2.16 2.5 1.98 2.7 2.6 2.3 7.56-.35 4.1-1.08 6.03-3 7.95-3.5 3.5-10.13 4.16-14.44 1.45zM81 123c2.58-2.58 2.88-11.45.42-12.4-.87-.33-6.9-.6-13.38-.6-9.54 0-12.05.3-13.1 1.58-2.14 2.57.14 4.8 5.9 5.8 2.84.5 5.16 1.37 5.16 1.95 0 .57.98 2.08 2.17 3.36 2.88 3 9.9 3.2 12.83.3zm35.1 17.72c3.56-2.75 3.9-5.27 3.9-29.1 0-22.97-.05-23.57-2.26-26.14-1.85-2.15-3.4-2.73-8.5-3.2-6.15-.55-6.24-.52-6.24 1.96 0 2.33.4 2.55 5.67 2.98 7.5.62 9.74 3.13 9.07 10.1-.63 6.63-3.73 9.65-10.77 10.52-4.94.6-8.4 3.16-4.3 3.16 2.9 0 8.17 3.7 10.34 7.24 6.5 10.6-4.6 24.28-16.3 20.24-3.5-1.2-3.6-1.16-3.6 1.14 0 2.36.1 2.38 10.8 2.35 6.9-.02 11.3-.47 12.4-1.25zm-10.07-5.24c7.42-3.83 7.93-16.75.8-20.17-4.18-2-5.54-2.1-9.75-1.1l-4.15 1.1.3 9.6c.26 9.1.4 9.7 2.77 10.9 3.33 1.7 6.48 1.6 10.03-.2zm-9-7.93c-2.65-3.2 1.26-8.12 4.72-5.94 3.46 2.2 2.23 7.4-1.75 7.4-.97 0-2.3-.6-2.96-1.4zm3.57-3.28c-1-1.02-1.85.5-1.02 1.86.63 1.02.87 1.02 1.2 0 .24-.7.16-1.53-.18-1.86zm-56.6 9.7c0-.57-.8-1.27-1.75-1.57-8-2.43-12.25-7.43-12.25-14.46C30 110.6 36.3 104 43.3 104c3.66 0 4.2-2.7.88-4.4-1.5-.8-3.37-2.6-4.13-4-1.12-2.1-2.12-2.6-5.22-2.6-7.2 0-10.44-6.8-5.2-10.93 2.34-1.83 4-2.07 14.55-2.07 11.3 0 12.03.12 14.37 2.45 2.65 2.65 3.23 7.37 1.47 11.98-.84 2.22-.7 2.57 1 2.57 1.8 0 1.98-.7 1.95-8.25-.04-8.96-.9-11-5.37-12.7-4.1-1.57-24-1.32-27.96.33-5.38 2.24-5.78 4.52-5.44 30.54l.3 23.26 2.8 2.4c2.4 2.06 3.86 2.42 9.76 2.42 4.1 0 6.94-.42 6.94-1.03zm0-7.97c0-2.85-.42-4-1.46-4-1.87 0-3.7-3.38-2.94-5.4.32-.83 1.44-1.8 2.5-2.13 1.44-.46 1.9-1.55 1.9-4.47v-3.86l-3.22.92c-10.02 2.88-11.63 16.8-2.46 21.33 4.9 2.4 5.68 2 5.68-2.4zm-.4-8.73c-1-1.02-1.85.5-1.02 1.86.63 1.02.87 1.02 1.2 0 .24-.7.16-1.53-.18-1.86zm52.36-10.46c1.94-2 2.04-3.4 2.04-26.4 0-24.1 0-24.2-2.4-27-2.34-2.7-2.74-2.8-14.16-3.1C62.52 49.6 59 51.7 59 63.9c0 5.53.22 6.12 2.86 7.68 3.3 1.94 6.14 6.27 6.14 9.33V83l3.74-2c9.08-4.87 19.28.16 20.93 10.33.3 1.95.08 4.96-.53 6.7-.82 2.34-.78 4.14.13 7.06.67 2.1 1.3 3.9 1.43 3.9.12 0 1.14-1 2.26-2.2zM80 75.3c-2.34-.86-6-4.5-6-5.97 0-.9-1.35-1.33-4.05-1.33-2.96 0-4.7-.66-6.5-2.45-3.15-3.16-3.1-4.07.55-7.7l3-3 12.6.32c11.82.3 12.7.47 14.5 2.7 3.6 4.44 1.76 14.12-3.16 16.66-2.8 1.46-8.05 1.82-10.94.76zm11.17-3.95c2.13-1.94 2.56-10.22.63-12.15-1.86-1.86-25.2-1.64-26.76.25-2.53 3.05-.82 5 5.22 5.96 3.67.6 5.74 1.4 5.74 2.3 0 .8.9 2.3 2 3.4 2.56 2.6 10.5 2.8 13.17.4zM113 103c2.28-2.28 2.8-9.8.8-11.8-.66-.66-3.36-1.2-6-1.2H103v15h4c2.67 0 4.67-.67 6-2zm-23.18-8.46c.57-6.85-3.12-12.07-8.9-12.56-4.95-.42-6.84.08-9.84 2.6C68.4 86.84 68 87.84 68 92.1V97h4.12c3.5 0 3.94-.22 2.92-1.45-1.6-1.92-.45-5.3 2.06-6.08 3.77-1.2 6.52 3.5 3.7 6.33-.93.93-.66 1.2 1.25 1.22 1.35 0 3.13.45 3.95.98 2.42 1.56 3.48.6 3.82-3.46zM56.52 96c1.16-.98 1.5-2.77 1.28-6.9l-.3-5.6-13.1-.28c-11.06-.23-13.32-.02-14.45 1.34-2.15 2.6.1 4.83 5.9 5.83 2.83.4 5.15 1.3 5.15 1.9 0 .5 1 2.1 2.25 3.4 1.92 2 2.95 2.3 6.97 1.9 2.6-.3 5.42-1.1 6.3-1.8zm22.58-3.3c-1.28-1.28-2.58-.3-1.63 1.25.37.6 1.13.8 1.7.45.67-.42.65-.98-.07-1.7zM45.23 68c1.8-1.1 4.5-2 6.02-2 2.03 0 2.75-.5 2.75-1.88 0-1.04-.9-2.12-2-2.4-1.1-.3-2.77-1.92-3.74-3.62-1.44-2.53-2.4-3.1-5.3-3.1-7.16 0-10.63-6.27-5.86-10.6 2.95-2.67 23.22-3.4 28.03-1 6.04 3.03 7.55 1.67 3.46-3.1-2.4-2.73-2.8-2.8-14.3-3.14-20.9-.6-22.4.8-22.4 20.8V70h4.9c3.2 0 6.1-.7 8.2-2zm7.53 1.3c-.95-.24-2.75-.25-4 0-1.24.23-.46.44 1.74.45 2.2 0 3.22-.2 2.26-.44zm3.5-18.26c.9-1.28 2.9-3.16 4.43-4.18L63.5 45H51.37c-12.76 0-14.95.72-14.2 4.7.26 1.35 1.8 2.03 6.1 2.7 3.66.6 5.73 1.4 5.73 2.26 0 .74 1 2.35 2.24 3.58l2.23 2.23.58-3.55c.3-1.95 1.3-4.6 2.2-5.88zm447.66 112.7c-1.85-1.26-4.4-3.8-5.65-5.66L496 154.7V95.25c0-66.74-.3-64.05 7.33-69.1l4.02-2.65h43.08c47.83 0 46.85-.13 51.74 6.73l2.33 3.27.27 60.57.27 60.57-2.3 3.4c-1.25 1.88-3.8 4.44-5.66 5.7L593.7 166h-86.4zm88.25-10.4c1.73-1.56 1.83-4.7 1.83-58.3 0-47.34-.23-56.98-1.42-58.6-1.35-1.85-3.14-1.95-40.2-2.22-40.85-.3-43.66-.05-44.77 4.1-.3 1.2-.5 26.94-.6 57.2 0 48.2.2 55.3 1.6 57.26l1.6 2.22h40.2c35.9 0 40.3-.17 42-1.65zm-49.85-9.6C531.15 139.4 524 129 524.02 117.1 524 101.13 536.1 89 552 89c15.83 0 28.03 12.07 28.15 27.86.08 9.92-4.75 18.73-13.23 24.17-4.6 2.96-6.07 3.35-13.3 3.62-4.78.17-9.43-.2-11.3-.94zM561 138.9c9.53-4.3 14.4-11.7 14.46-21.92.03-5.37-.45-7.33-2.78-11.3-8.14-13.85-26.06-16.37-37.2-5.23-9.5 9.5-9.4 24.64.18 33.72 4.06 3.84 11.1 6.76 16.34 6.76 2.48 0 6.53-.92 9-2.04zM549.36 125c-2.8-1.1-5.36-4.84-5.36-7.77 0-3.36 4.28-7.23 8-7.23 3.8 0 8 3.9 8 7.4 0 2.85-3.55 7.2-6.5 7.95-1.1.28-2.96.12-4.14-.35zm4.06-4.6c2.07-.8 2.04-5-.05-5.8-3.2-1.24-5.63 2.74-3.17 5.2 1.4 1.4 1.2 1.37 3.22.6zM540.4 76.6c-2.6-2.6-3.4-4.24-3.4-7V66h-7.45c-8.6 0-11.56-1.06-13.88-5-3.17-5.35-1.6-11.44 3.9-15.05 2.72-1.8 4.93-1.94 30.73-1.94 30.02 0 31.67.3 35.05 5.4 1.27 2 1.65 5 1.65 13.2v10.6l-3.4 3.4-3.4 3.4h-36.4zm40.68-2.52c2.78-2.78 2.92-3.35 2.92-11.54 0-9.78-1.27-12.74-6.22-14.47-4.2-1.46-50.44-1.43-54.65.04-3.63 1.3-5.13 3.5-5.13 7.7 0 5 3.02 6.7 12.83 7.2l8.62.5.75 4.5c.5 3 1.64 5.3 3.33 6.8 2.45 2.2 3.42 2.3 18.6 2.3h16.02zM177 125.53v-17.48l-15.75-.27-15.75-.28v-22l15.75-.28 15.75-.27V52h20v33h54.9l-4.53-12.75-5.96-16.63c-.7-2.13-1.4-4.04-1.4-4.25 0-.2 4.7-.37 10.5-.37h10.4l5.7 17 5.7 17h11.2l11.2-.02 5.5-17L305.4 51h10.42c9.5 0 10.33.15 9.7 1.75-.37.96-2.9 7.9-5.6 15.42-2.7 7.5-5.2 14.38-5.53 15.25-.6 1.38.6 1.58 9.5 1.58H334V51h27.78l2.08 7.75 4.46 16.75 2.38 9h14.62l3.68-14c2.02-7.7 3.98-15.25 4.36-16.78l.7-2.77 14.22.27 14.22.28.27 16.75.28 16.75H455v-5.5c0-3.77.4-5.5 1.27-5.5.7 0 6.2 4.95 12.23 11l10.97 11L468 107.5c-6.3 6.33-11.8 11.5-12.23 11.5-.43 0-.77-2.47-.77-5.5V108h-32v35h-18v-35h-4.48c-4.05 0-4.55.26-5.18 2.75L391 128l-3.63 14.5h-18.74L365 128l-4.34-17.25c-.62-2.42-1.17-2.75-4.68-2.75H352v35h-18v-35h-14.25l-14.25.02-6.08 17.24-6.08 17.24-10.42.27-10.42.26-6.08-17.26-6.08-17.27-31.67-.26-31.67-.27V127h45v16h-65zm108.3-12.78l1.58-4.75h-6.7l1.6 4.98c.87 2.74 1.67 4.88 1.76 4.75.1-.13.88-2.37 1.75-4.98zM379 109c0-.55-.45-1-1-1s-1 .45-1 1 .45 1 1 1 1-.45 1-1zm-25.1-25.25c-.05-.7-.46-2.38-.9-3.75-.7-2.23-.8-2.1-.9 1.25-.06 2.06.35 3.75.9 3.75s.96-.56.9-1.25zm51-4.5l-.08-5.75-1.4 5c-1.74 6.3-1.74 6.5.08 6.5 1.17 0 1.48-1.27 1.4-5.75z"/><path fill="#a1a2a2" d="M48.4 162.6c-3.4-3.4-3.4-3.43-3.4-12.9v-9.5l-9.08-.35c-9.03-.35-9.1-.37-12.5-4.1l-3.42-3.7v-26.28c0-24.24.16-26.5 1.95-29.45 1.07-1.74 2.87-3.67 4-4.27 1.92-1.03 2.05-2 2.05-15.6C28 33.82 28.85 33 52.05 33c12.22 0 15.68.32 17.9 1.64 3.2 1.9 6.05 6.24 6.05 9.26 0 1.98.53 2.1 9.1 2.1 15.32 0 17.9 2.87 17.9 19.9V77h5.6c6.88 0 11.73 2.18 14.38 6.47 1.9 3.05 2.02 4.94 2.02 28.65 0 23.07-.18 25.66-1.9 28.46-3.03 5-7.38 6.42-19.5 6.42H93v5.05c0 5.8-1.82 9.95-5.4 12.3-2.1 1.37-5.4 1.65-19.16 1.65H51.8zm37.15-3.05L88 157.1v-50.2l-2.45-2.45C83.18 102.1 82.6 102 69.6 102c-14.5 0-17.72.77-19.5 4.66-1.55 3.42-1.5 47.7.06 50.66 2.27 4.25 3.73 4.62 18.64 4.65 13.86.03 14.36-.04 16.75-2.42zM64.65 158c-11.42-3.56-12.87-18.63-2.4-25 10.93-6.67 24.74 5.78 19.25 17.35-2.87 6.05-10.67 9.6-16.86 7.66zm9.87-2.58C77.96 153.8 81 148.92 81 145c0-11.9-17.1-16.47-22.48-6.03-5.67 10.96 4.82 21.76 16 16.45zm-7.8-7.55c-2.1-1.18-2.24-4.2-.28-5.82 1.93-1.6 5.56.33 5.56 2.95 0 2.52-3 4.14-5.28 2.87zM69.5 145c0-.73-.56-1.52-1.25-1.75C67.5 143 67 143.7 67 145s.5 2 1.25 1.75c.7-.23 1.25-1.02 1.25-1.75zm-3.62-22c-2.7-3.36-3.8-4-6.9-4-4.93 0-7.73-2.95-6.4-6.76 1.45-4.1 4.78-5.2 15.7-5.23 10.06 0 16.64 1.7 16.8 4.2l.33 4.3c.7 7.5-3.3 11.5-11.3 11.5-4.6 0-5.2-.3-8.2-4zm15.48.15c2.15-2.38 2.86-10.73 1.03-12.24-1.9-1.5-22.2-2.3-25.8-.9-2.3.9-2.8 1.6-2.5 3.8.3 2.5.8 2.9 6 3.7 3.1.5 5.7 1.5 5.7 2.1 0 .6.7 2.1 1.5 3.4 2.1 3 11.2 3.3 13.8.4zm36.2 16.4l2.44-2.46v-24.5c0-13.5-.28-25.2-.62-26.1-1-2.6-5.87-4.6-11.33-4.6-4.94 0-5.05 0-5.05 3 0 2.9.1 3 5.17 3 7 0 8.83 1.7 8.83 8.4 0 2.9-.64 6-1.53 7.3-1.74 2.5-7.77 4.4-11.08 3.6-1.6-.4-2.6 0-3.3 1.4-1 1.7-.7 2 2.3 2.6 4.4.8 9.1 5.5 10.6 10.6 1 3.5.9 4.4-1.3 8.5-3.8 7.3-11.1 10.1-18.2 6.9-1.4-.7-1.8-.3-1.8 1.8v2.6H104c10.4 0 11.2-.2 13.5-2.5zm-8.98-5.62c1.35-1.27 2.95-3.98 3.57-6.02.93-3.1.8-4.3-.77-7.5-2.74-5.5-7.33-7.9-13.23-6.8l-4.65.9-.28 10.1c-.27 9.7-.18 10.2 2 11.3 3.5 1.8 10.5.8 13.36-1.9zM97.5 127c-1.75-1.93-1.75-2.07 0-4 1-1.1 2.16-2 2.58-2 1.05 0 3.92 2.93 3.92 4 0 1.07-2.87 4-3.92 4-.42 0-1.58-.9-2.58-2zm4.05-1.1c1.03-1.65-1.28-3.57-2.66-2.2-1.2 1.17-.5 3.3 1.1 3.3.5 0 1.1-.5 1.5-1.1zm-56.75 8c-.2-.6-2.08-1.7-4.18-2.42-10.67-3.67-13.75-14.96-6.25-22.9 2.32-2.47 4.52-3.7 7.44-4.17 5-.7 7.5-3 4.6-4-2.6-.9-6.3-4.4-6.3-6 0-.9-1.3-1.3-4-1.3-2.9 0-4.7-.6-6.5-2.4-2.8-2.8-3-4.3-.9-7.3 1.5-2.1 2.3-2.2 15-2.2 12.1 0 13.7.2 15.5 2 1.5 1.6 1.9 3 1.6 6.3-.2 2.3-.7 5.1-1.1 6-.5 1.3-.2 1.8 1.4 1.8 2 0 2.1-.5 2.1-8.9s-.1-9-2.6-11c-2.4-2-4.1-2.2-16.6-2.2H30l-3 2.9-2.9 2.9v23.7c0 23.9.4 26.4 3.9 29.2 2.1 1.6 17.5 1.7 16.9.1zm.2-7.66c0-2.95-.5-3.98-2.25-4.75-1.47-.7-2.25-1.9-2.25-3.5s.78-2.9 2.25-3.5c1.76-.8 2.25-1.8 2.25-4.8 0-4.3-1-4.6-6.47-2.4-5.52 2.3-8.03 9.5-5.55 16 1.12 2.9 6.48 6.5 9.77 6.6 1.94 0 2.25-.6 2.25-3.8zm-.5-8.24c0-.73-.56-1.52-1.25-1.75C42.5 116 42 116.7 42 118s.5 2 1.25 1.75c.7-.23 1.25-1.02 1.25-1.75zM98 80.33c0-32.4 1.16-30.76-21.5-30.16-12.47.32-12.72.38-15.1 3.14-2.06 2.4-2.4 3.9-2.4 10.1 0 7 .1 7.3 3 9 3.28 2 6 6.4 6 9.7v2.2l2.6-2c6.74-5.3 16.5-2.6 20.5 5.7 2 4.1 2.1 5.1 1 8.7-1.5 5.1-1.5 5.3.08 9.8l1.28 3.7 2.27-2.1C97.97 106 98 105.7 98 80.6zM79.48 74.6c-1.67-.72-3.57-2.5-4.23-3.96-1-2.2-1.87-2.64-5.04-2.64-6.9 0-10.4-5.74-6.2-10 1.8-1.8 3.4-2 15-2 12.6 0 13 .06 14.9 2.5 1.5 1.84 1.9 3.63 1.6 6.55-.5 5.53-2 7.88-6 9.53-4.1 1.73-6 1.73-9.9.02zm10-1.77c2.58-1.18 3.87-4.13 3.88-8.88 0-5.84-.24-5.95-13.75-5.95-6.8 0-13.1.27-14 .6-1.9.73-2.1 4.73-.3 6.18.7.57 3.3 1.34 5.8 1.7 3.3.5 4.8 1.28 5.5 2.84 1.8 4.1 8 5.78 13 3.5zm23.92 30.28c1.27-1.4 1.63-3.2 1.4-7.2l-.3-5.3-5.75-.5-5.75-.5V105h4.35c3 0 4.87-.6 6.05-1.9zm-22.9-9.4c0-7.9-6.7-13.6-14.27-12.1C70.73 82.5 68 86 68 92v5h4.7c3.66 0 4.43-.27 3.5-1.2-1.8-1.8-1.45-4.6.73-5.76 3.4-1.82 6.63 3 3.87 5.76-.93.93-.77 1.2.75 1.24 1.07 0 3.08.66 4.45 1.43 3.3 1.84 4.5.55 4.5-4.8zm-33.37 2.6c1.48-1.4 2-10.4.68-12-1.1-1.3-24-1.8-27.2-.6-2.2.9-1.9 5.1.5 6.4 1.1.6 3.7 1.2 5.6 1.4 2.8.3 4 1.1 5.6 3.6 2 3.2 2.1 3.3 8 2.8 3.3-.2 6.5-.9 7.1-1.5zm22.37-3.1c0-1.8-1.96-1.4-2.35.4-.2 1.1.16 1.5 1 1.3.74-.2 1.35-1 1.35-1.6zM48.74 67.4c2.88-1.06 5.24-2.4 5.26-3 0-.6-1.78-2.95-3.96-5.24-3.05-3.2-4.7-4.16-7.2-4.16C39.4 55 35 51.72 35 49.14c0-.83.98-2.55 2.17-3.83C39.2 43.2 40.1 43 51.14 43c8.98 0 12.63.4 15.3 1.68 4.16 1.98 5.3 1.3 3.98-2.43-1.62-4.6-4.5-5.33-19.65-5.02-18.6.37-18.16-.1-18.6 18.9l-.32 14.06 5.82-.5c3.2-.3 8.2-1.3 11.07-2.4zM54 69c0-1.2-3.7-1.2-6.5 0-1.55.67-1.04.88 2.25.93 2.34.04 4.25-.38 4.25-.93zm.4-10.58c.33-.87.6-2.4.6-3.37 0-2.6 3.85-7.07 7.42-8.65 2.76-1.22 1.7-1.33-10.3-1.13-11.53.2-13.56.48-14.5 1.98-1.83 2.9.46 5.14 6.23 6.14 2.83.4 5.15 1.3 5.15 1.9 0 1.2 3 4.7 4.05 4.7.4 0 1-.7 1.34-1.6zm449.2 104.66c-1.6-1.05-3.84-3.4-5-5.23-2.07-3.3-2.1-4.05-2.1-63.42v-60.1l2.8-3.66c5.22-6.84 3.93-6.67 51.2-6.67 46.66 0 45.7-.1 50.88 6.04l2.62 3.1v61.2c0 58.23-.1 61.3-1.9 64.02-1.03 1.57-3.17 3.7-4.74 4.74-2.7 1.78-5.44 1.9-46.86 1.9-41.62 0-44.16-.12-46.9-1.92zm88.83-9.65c1.4-1.4 1.57-8.12 1.57-58.94V37.1l-2.22-1.54c-1.92-1.35-7.57-1.56-41.5-1.56-37.95 0-39.35.07-41.28 2-1.95 1.95-2 3.33-2 58.67 0 51.33.16 56.84 1.65 58.5 1.56 1.72 4.2 1.83 41.93 1.83 35.28 0 40.47-.2 41.85-1.57zm-49.8-10.07c-7.24-2.22-14.97-10.27-17.2-17.9-3.98-13.73 1.8-26.77 14.95-33.73 5.8-3.08 17.43-3.08 23.24 0 13.23 7 18.95 19.9 14.94 33.73-1.32 4.53-2.85 6.97-6.98 11.1-7.95 7.94-17.74 10.25-28.96 6.8zm21.96-5.9c3-1.86 6-4.9 7.8-7.9 2.7-4.34 3-5.77 3-12.48 0-8.3-1.4-11.8-6.4-16.83-6.2-6.14-15.4-8.54-23.9-6.2-6.1 1.72-14.3 9.65-16.1 15.57-3.6 11.94 2 24.3 13.2 29.54 6.2 2.92 15.8 2.18 22.1-1.7zM547 123c-2.98-2.98-2.67-8.33.63-10.93 1.45-1.14 3.23-2.07 3.96-2.07 2.8 0 6.3 2.38 7.4 5.03 2.9 7.07-6.6 13.4-12 7.97zm7.93-3.86c1.3-2.43-.84-5.5-3.48-5-2.02.4-3 2.97-2.07 5.42.8 2.05 4.37 1.78 5.55-.42zm-11.74-40.5c-3.2-1.75-6.2-6.57-6.2-9.9V66h-7.9c-7.3 0-8.2-.22-11-2.85-1.7-1.56-3.4-4.05-3.7-5.52-.9-3.37 1.1-8.1 4.3-10.66C521 45.1 522.9 45 550.3 45c31.9 0 32 .02 35.1 6 2.1 4.07 2 18.1-.15 22.64-2.7 5.7-5.2 6.36-23.57 6.32-11.35-.02-17-.42-18.6-1.3zm36.9-2.92c2.9-2.3 3.9-5.6 3.9-14.1 0-7.55-.3-8.82-2.4-11.3l-2.5-2.82h-57.3l-2.5 2.9c-2 2.27-2.4 3.62-1.9 6 1 5.08 3.7 6.6 12.1 6.6 9.2 0 10.4.48 10.4 4.17 0 3.34 1.5 6.74 3.9 8.55 2.2 1.7 33.9 1.7 36.2 0zm-402.5 66.6c-.4-.35-.7-8.23-.7-17.5V108h-31V85h30.9l.3-16.25.2-16.25h19l.2 16.25L197 85h27.48c15.1 0 27.46-.14 27.46-.3 0-.17-2.65-7.62-5.9-16.57-4.14-11.45-5.52-16.4-4.66-16.74.68-.3 5.24-.4 10.15-.2l8.92.3 5.88 16.7 5.9 16.7h22.28l5.6-16.8 5.5-16.8 9.7-.3c7.4-.2 9.7 0 9.7 1 0 .7-2.5 8.1-5.5 16.6-3 8.4-5.5 15.5-5.5 15.7 0 .2 4.5.4 10 .4h10V51h27.7l4.5 16.75 4.5 16.75h14.9l4.4-16.75L394.3 51H422v34h33v-4.94c0-2.72.37-5.17.82-5.45.45-.2 5.85 4.6 12 10.8L479 96.6l-11.3 11.22c-6.2 6.2-11.6 10.94-12 10.56-.38-.4-.7-2.88-.7-5.54V108h-33v35h-17v-35.1l-4.7.3-4.68.3-3.64 14.5-4.32 17.25c-.7 2.74-.72 2.75-9.66 2.75s-8.96 0-9.66-2.75L364.02 123l-3.64-14.5-4.7-.3-4.68-.3V143h-17v-35h-28.5l-4.4 12.25c-2.4 6.74-5.26 14.63-6.33 17.53l-1.94 5.3-10.08-.3-10.1-.28-6.07-17.24-6.08-17.24h-31.75L197 108v19h45v16h-31.83c-17.5 0-32.14-.3-32.5-.67zm107.6-29.57l1.6-4.75h-6.7l1.6 4.98c.8 2.74 1.6 4.88 1.7 4.75.1-.13.9-2.37 1.7-4.98zm181.9-26l-9.8-9.8-.3 4.52-.3 4.53H422v21h35v9.46l10-9.96 10-9.96zM379 109.5c0-.82-.45-1.5-1-1.5s-1 .68-1 1.5.45 1.5 1 1.5 1-.68 1-1.5zm-202-13V86h-30v21h30zm157 0V86H197v21h137zm23.15 0c-2.07-8.45-2.92-10.5-4.36-10.5-1.7 0-1.8 1.08-1.8 10.5V107h8.7zm24.78 1.25c1.3-5.1 2.6-9.8 2.83-10.5.34-.93-1.42-1.25-6.76-1.25-6.16 0-7.13.23-6.6 1.58.32.87 1.53 5.24 2.68 9.72 1.14 4.48 2.3 8.5 2.56 8.92 1.5 2.45 3.15-.18 5.3-8.47zM405 96.5c0-9.42-.18-10.5-1.8-10.5-1.43 0-2.28 2.05-4.35 10.5l-2.58 10.5H405zm-51.02-12.25c0-.4-.64-3-1.4-5.75l-1.4-5-.1 5.75c-.06 4.48.25 5.75 1.42 5.75.83 0 1.5-.34 1.48-.75zm50.93-5V73.5l-1.4 5c-1.7 6.3-1.7 6.5.1 6.5 1.2 0 1.5-1.27 1.4-5.75z"/><path fill="#656565" d="M50.76 164.43c-4.4-2.4-5.76-6.24-5.76-16.38V139h-8.54c-6.24 0-9.2-.44-11.05-1.65-5-3.33-5.4-5.3-5.4-31.9 0-26.76.6-29.78 5.6-32.47 2.4-1.3 2.4-1.45 2.4-15.75C28 34.28 29.3 33 52 33c10.82 0 14.85.36 17.14 1.55 3.2 1.66 6.9 6.84 6.9 9.7 0 1.53 1.1 1.75 8.75 1.75 15 0 18.2 3.68 18.2 21.47V78h6c3.4 0 7.3.65 8.9 1.5 5.9 3.07 6 3.42 6 32.82v26.88l-3.4 3.4-3.4 3.4h-24l-.4 6.63c-.4 6.12-.7 6.88-4.1 10L85 166l-15.76-.04c-11.98-.03-16.42-.4-18.5-1.53zm34.33-3.7c3.5-2.75 3.9-5.3 3.9-28.73 0-23.44-.4-25.98-3.9-28.72-1.1-.83-6.4-1.23-16.4-1.25-14.4-.03-14.9.04-17.3 2.42L49 106.9v50.2l2.45 2.45c2.4 2.38 2.86 2.45 17.25 2.42 10.06-.02 15.3-.42 16.4-1.25zm-25.3-6.6c-2.5-2.46-3.9-4.77-3.8-6.26.1-2 .2-1.87 1 .8.5 1.74 2.3 4.37 4.1 5.85 2.8 2.36 3.8 2.64 8.5 2.25 3-.25 4.7-.08 4 .38-.7.45-3.3.83-5.7.83-3.8.02-4.9-.53-8.3-3.86zm17.7-.13c1-1.1 2-2 2.3-2 .2 0-.3.9-1.3 2s-2.1 2-2.3 2c-.3 0 .3-.9 1.3-2zm3.3-5.67c.4-2.1.7-2.35.9-.97.2 1.02-.1 2.3-.6 2.82-.7.63-.8-.03-.4-1.85zm-14.7-1.7c-1.3-1.5-.5-4.63 1.1-4.63.6 0 .5.6-.2 1.46-1.4 1.65-.6 3.54 1.4 3.54 2.1 0 2.8-1.9 1.4-3.8-1.3-1.6-1.2-1.6.5 0 1.5 1.4 1.6 1.96.5 3.25-1.6 1.92-3.5 1.98-5 .18zM56 141.95c.52-1.82 1.37-3.74 1.9-4.26.5-.6.37.6-.3 2.6-1.62 4.7-2.84 5.9-1.6 1.6zm24.3-1.7c-1.04-3.32-1-3.53.25-1.8 1.2 1.62 2.03 5.55 1.17 5.55-.14 0-.78-1.7-1.42-3.75zM74 133.5c-1.38-.8-2.02-1.45-1.44-1.46.58-.02 1.93.62 3 1.43 2.47 1.87 1.68 1.88-1.56.03zm-6.2-2.18c.73-.3 1.6-.26 1.93.08.33.33-.26.56-1.3.52-1.18-.05-1.42-.28-.62-.6zm5.47-5c.97-.27 2.32-.25 3 .02.68.28-.12.5-1.77.47-1.65 0-2.2-.2-1.23-.5zM68.5 125c-.34-.58.06-.74.95-.4 1.73.66 2.05 1.38.6 1.38-.5 0-1.2-.44-1.54-1zm12.5-.4c0-.2.8-1 1.75-1.75 1.6-1.24 1.62-1.2.38.38-1.3 1.67-2.13 2.2-2.13 1.37zm-15.54-2.7c-.36-.57-.45-1.27-.18-1.53.26-.27.74.2 1.07 1.06.67 1.76.1 2.07-.9.47zm18.72-5.47c-.1-2.78-.63-5.6-1.18-6.25-.54-.67-.3-.6.56.14 1.13.98 1.46 2.7 1.18 6.26l-.38 4.9zM53 113.55c0-1.33.37-2.66.82-2.94.45-.2.62.9.4 2.5-.54 3.6-1.22 3.9-1.22.5zm7.78-5.3c2.9-.2 7.4-.2 10 .02 2.6.2.22.37-5.28.37s-7.62-.18-4.72-.38zm16.5.06c.96-.2 2.3-.2 3 .1.67.3-.13.5-1.78.5s-2.2-.2-1.23-.5zm40.4 31.6c2.3-2.1 2.32-2.3 2.32-27.7 0-24.8-.06-25.5-2.17-27.8-1.83-1.9-3.2-2.3-8.5-2.3H103v22.8c.02.4 2 .8 4.42.8s4.18.4 3.93.8c-.26.4-2.4.8-4.8.8-4.3 0-7.33 2-6.1 3.9.33.6-1.2 1.6-3.42 2.2l-4.03 1v10.3c0 9.6.16 10.4 2.15 11.5 1.2.7 4.3 1 7.08.7 2.9-.3 4.4-.1 3.6.4-1.86 1.2-8.57 1.1-10.9-.13-1.7-.9-1.93-.7-1.93 2v3h11.2c10.1 0 11.4-.2 13.5-2.16zM112.7 127c.36-2.46.78-4.65.98-4.88.8-.93.26 6.53-.6 7.87-.58.9-.7-.2-.33-3zm-12.4.4c2.4-.7 2.2-4.13-.28-4.7-1.67-.4-1.63-.42.25-.3 3.06.17 3.3 5 .27 5.3-1.53.16-1.6.1-.23-.3zm15.5-29.8c-.26-1.34-.1-3.03.37-3.76.53-.82.83.06.84 2.45 0 4.3-.5 4.8-1.2 1.3zm-11-9.3c.74-.3 1.6-.25 1.94.1.33.32-.26.55-1.3.5-1.18-.04-1.42-.27-.62-.6zm3.96.03c.7-.28 1.8-.28 2.5 0s.13.5-1.25.5-1.9-.22-1.2-.5zM44.82 133.3c-.2-1.05-1.7-2-3.8-2.43-4.2-.86-10.06-6.84-9.93-10.1 0-1.8.2-1.62 1 .9 1.2 4.13 6.2 8.33 9.9 8.33 2.7 0 2.9-.22 2.9-4.26 0-3.46-.5-4.45-2.3-5.25-1.3-.6-2.3-1.7-2.3-2.5 0-.9 1-2 2.2-2.5 1.8-.8 2.2-1.8 2.2-5.3 0-3.9-.2-4.3-2.6-4.3-1.4 0-3.6.4-4.8 1-2.1 1-2.1 1-.3-.5 1.02-.9 3.33-1.6 5.1-1.6 2.3 0 3.64-.7 4.82-2.5 1.6-2.4 1.57-2.5-.3-2.5-3.96 0-2.77-1.5 1.26-1.6 2.3-.1 6.73-.5 9.9-.9l5.74-.8v-8.2c0-7.6-.22-8.5-2.64-10.9C58.78 75 58.6 75 43.8 75c-14.5 0-14.97.06-17.36 2.44L24 79.9v50.2l2.45 2.45c2.2 2.2 3.3 2.45 10.58 2.45 7.12 0 8.08-.2 7.8-1.7zM31.1 115.35c-.06-1.18.7-3 1.65-4.05.96-1.04 1.38-1.34.93-.66-.45.68-1.2 2.5-1.66 4.05-.7 2.2-.86 2.4-.93.6zm9.25-20.9c-.33-.85-.37-1.77-.1-2.04s.74.5 1.03 1.6c.62 2.4-.07 2.8-.93.5zm18.5-4.24c.3-4.5 0-5.8-1.44-6.9-.9-.7-1.3-1.3-.8-1.3 2.2 0 3.4 2.7 3.4 7.7 0 2.9-.3 5.5-.7 5.7-.4.3-.6-2-.4-5.1zm-27.1 1.2c.7-.3 1.8-.3 2.5 0s.13.5-1.25.5-1.94-.2-1.25-.5zm-3.6-4.4c-.15-2.6 1.4-5 3.23-5 .54 0 .25.6-.64 1.3-.9.7-1.8 2.4-2.05 3.8l-.5 2.5zm8.63-5.6c2.35-.2 5.95-.2 8 0 2.04.2.12.4-4.28.4s-6.08-.2-3.72-.4zm14.97.1c.7-.3 1.8-.3 2.5 0s.13.5-1.25.5-1.94-.2-1.25-.5zM45 118c0-1.1-.65-2-1.44-2-1.77 0-2.9 1.65-2.06 3 1.1 1.76 3.5 1.07 3.5-1zm52.92-12.8c.83-2.02 1.1-9.9.88-26.62l-.3-23.76-2.8-2.4C93 50.1 92.26 50 78.4 50c-14.05 0-14.57.07-16.95 2.45C59.27 54.65 59 55.77 59 62.6v7.7l4 3.43c2.97 2.54 4.16 4.43 4.63 7.33.4 2.47 1.03 3.67 1.74 3.28.64-.36.58-.04-.12.7-.7.75-1.25 3.68-1.25 6.52v5.15l7.75.6c10.48.8 13.53 2.2 15.58 6.9.92 2.1 1.67 4.3 1.67 4.9 0 2 3.7-.9 4.92-3.8zm-7.1-8.87c.43-2.1.68-2.35.97-.97.2 1.02-.1 2.3-.6 2.82-.7.63-.8-.03-.4-1.85zM79 95.63c0-.22.8-1 1.75-1.76 1.6-1.24 1.62-1.2.38.38-1.3 1.67-2.13 2.2-2.13 1.37zm-4-2.5c0-1.02 2.9-3.6 3.36-3.02.17.3-.52 1.2-1.53 2.2-1 1-1.83 1.4-1.83.9zM91.16 91c0-1.38.22-1.94.5-1.25.28.7.28 1.8 0 2.5s-.5.13-.5-1.25zM84 82c-.9-.58-1.02-.98-.3-.98.65 0 1.46.43 1.8.98.77 1.24.42 1.24-1.5 0zm-9.95-1.05c1.34-.85 8.8-1.4 7.87-.6-.23.2-2.42.63-4.87.94-2.88.3-3.93.2-3-.4zm6.95-6.5c3.5-.8 9.8-.93 9.36-.22-.26.42-2.8.72-5.67.65-2.9-.06-4.6-.26-3.7-.44zm-4.13-2.2c-1.24-1.6-1.2-1.62.38-.38.96.76 1.75 1.54 1.75 1.75 0 .83-.82.3-2.13-1.37zM94.3 64.5c0-2.75.2-3.76.42-2.24.23 1.52.22 3.77-.02 5-.23 1.23-.42 0-.4-2.76zm-30.1 1.3c-.66-.66-1.17-1.9-1.13-2.75.05-1.08.3-.96.84.43.5 1.08 1.9 2.28 3.2 2.65 2.1.58 2.2.68.4.77-1.1.06-2.6-.44-3.2-1.1zm-1-5.8c.9-2.97 5.07-3.97 15.8-3.8l10.5.15-11.83.58c-10.26.5-12.04.84-13.37 2.57-.9 1.17-1.34 1.37-1.1.5zm-18.76 9.47c1.07-.8 2.4-1.47 2.94-1.47.55 0 .13.68-.94 1.5-1.8 1.4-1.57 1.5 2.98 1.26 5.73-.3 7.7-2.67 2.4-2.92l-3.32-.16 3.25-.4c2.67-.33 3.25-.84 3.25-2.84 0-1.34-.56-2.48-1.25-2.52-1-.06-1-.18 0-.58.7-.28 1.25-1.86 1.25-3.52 0-4.1 2.7-8.34 6.65-10.47 2.34-1.26 2.94-2.03 2.07-2.65-.76-.55-.46-.6.78-.15 1.1.4 3.24.95 4.75 1.2 3.75.65 3.67-2-.17-5.83L66.15 37H52.5c-20.32 0-20.42.1-20.47 19.75L32 71l5.25-.03c3.02-.02 6.07-.66 7.2-1.5zm4.58-11.67c-1.07-1.77-1.74-3.42-1.48-3.67.52-.53.4-.7 2.66 3.62 2.2 4.2 1.36 4.22-1.18.05zm-11.97-5.24c-.66-.8-1.05-2.7-.87-4.23.5-4.27 3.75-5.32 15.82-5.14l10.5.1-11.7.6c-6.57.3-12.2 1-12.83 1.7-2.02 2-.74 6.7 2.03 7.5 2.2.6 2.25.7.37.8-1.17 0-2.66-.6-3.32-1.4zM504.25 163c-1.8-1.1-4.16-3.45-5.26-5.24-2-3.16-2-5.15-2-62.78 0-67.02-.4-64.17 7.6-68.7 3.8-2.23 4.3-2.25 45.7-2.26 46.7-.02 46.5-.05 51.2 6.86l2.4 3.58v60.02c0 58.13-.1 60.12-2 63.28-1.1 1.8-3.5 4.15-5.3 5.25-3.1 1.9-5.1 2-46.3 2s-43.2-.1-46.3-2zm88.55-9.2c.9-.9 1.2-15.36 1.2-58.93 0-51.15-.18-57.9-1.57-59.3-1.38-1.37-6.55-1.57-41.67-1.57-35.9 0-40.3.17-41.93 1.65-1.73 1.57-1.83 4.7-1.83 58.57 0 37.32.36 57.58 1.04 58.85 1 1.86 2.52 1.93 42.3 1.93 30.76 0 41.57-.3 42.46-1.2zm-50.4-11.07c-7.52-2.97-13.8-9.4-16.24-16.63-.64-1.87-1.15-6.14-1.14-9.5.06-15.16 11.65-26.58 26.98-26.58 27.22 0 37.4 34.6 14.72 50.08-4.3 2.93-5.63 3.3-13 3.56-4.9.18-9.48-.2-11.33-.93zm22.74-5.26c2.37-1.66 5.67-4.96 7.33-7.33 2.82-4 3.03-4.93 3.03-13.14 0-8.2-.2-9.13-3.03-13.14-4.66-6.63-10.04-9.92-17.3-10.58-15.76-1.43-27.17 8.54-27.17 23.74 0 7.04 1.52 11.23 5.9 16.2 5.2 5.93 10.3 7.93 19.27 7.58 6.65-.27 8.24-.7 11.97-3.33zm-16.12-13.76c-3.52-1.7-4.87-6.1-2.96-9.5 1.2-2.1 2.36-2.7 5.63-3 3.3-.2 4.4.2 5.7 2 2 3 2 6.1-.2 8.7-2.4 2.8-5.3 3.4-8.3 1.9zm6.44-4.5c.9-2.8-.42-5.1-2.94-5.1-2.94 0-4.86 2.4-4.04 5 .87 2.8 6.12 2.9 6.98.2zM543.23 78c-3.28-2-4.58-4.12-5.68-9.25-.58-2.7-.7-2.75-8.17-2.75-7.3 0-7.7-.13-10.98-3.4-5.13-5.13-4.4-12.4 1.6-15.93 2.44-1.45 6.46-1.67 30.47-1.67 35.95 0 35.47-.23 35.5 17.03C586 78.77 584.35 80 561.8 80c-13.52 0-15.68-.24-18.57-2zm37.85-2.92c2.84-2.85 2.92-3.2 2.92-13.05 0-9.66-.12-10.24-2.65-12.58L578.7 47h-27.4c-27.88 0-30.23.28-33.02 3.9-2.12 2.78-1.5 7.53 1.3 10.18 2.2 2.07 3.83 2.5 11.25 2.92l8.67.5.6 4.4c.4 3.1 1.4 5.12 3.3 6.76C546 77.9 546.77 78 562.12 78h16.02zM178 125.5V108h-32V85h32V52h18v33h28c15.4 0 28-.2 28-.45s-2.48-7.4-5.5-15.92c-3.03-8.5-5.5-15.72-5.5-16.05 0-.32 4.42-.58 9.82-.58h9.82l5.55 16.25 5.5 16.25 11.5.28 11.5.28 5.4-16.28 5.4-16.28 9.6-.3c5.3-.14 9.6-.06 9.6.2 0 .27-2.5 7.37-5.5 15.78-3.1 8.4-5.5 15.64-5.5 16.06 0 .42 4.5.76 10 .76h10V50.94l13.7.28 13.7.28 4.5 16.75L370.4 85h15.2l4.42-16.75 4.42-16.75 13.75-.28 13.7-.28V85h34V73.53l11 10.97c6 6.03 11 11.43 11 12 0 .57-5 5.97-11 12l-11 10.97V108h-34v35h-17v-35h-9.6l-4.3 17.5-4.3 17.5h-17.6l-4.4-17.5-4.4-17.5H351v35h-17v-35h-28.78l-6.25 17.5-6.25 17.5h-19.58l-1.93-5.25c-1-2.9-3.8-10.76-6.2-17.5L260.6 108H196v19h46v16h-64zm108.44-15.25c.63-2.04.36-2.25-2.87-2.25-1.96 0-3.57.14-3.57.32s.76 2.54 1.68 5.25l1.68 4.92 1.2-3c.65-1.7 1.5-4 1.88-5.3zm181.06-23.7l-10-9.35-.5 4.15-.5 4.15-17.25.27-17.25.28v20.9l17.25.28 17.25.27.32 4.43.3 4.43 10.2-10.23L477.5 95.9zm-88.9 21.7c-1.1-1.1-1.85.65-1.07 2.46.74 1.8.8 1.8 1.2 0 .25-1 .18-2.1-.14-2.4zM178 96.5V86h-31v21h31zm156 0V86H196v21h138zm25.6 8.75c-.28-.96-1.5-5.7-2.68-10.5-1.76-7.12-2.5-8.75-4.04-8.75-1.72 0-1.88.9-1.88 10.5V107h4.57c3.88 0 4.5-.26 4.04-1.75zm22.76-8.08c1.45-5.4 2.64-10.14 2.64-10.5 0-.37-3.2-.67-7.12-.67-6.9 0-7.1.07-6.48 2.25.34 1.24 1.58 5.96 2.74 10.5 1.62 6.35 2.5 8.25 3.84 8.25 1.35 0 2.32-2.18 4.38-9.83zM405 96.5c0-9.6-.16-10.5-1.88-10.5-1.53 0-2.28 1.63-4.04 8.75-1.2 4.8-2.4 9.54-2.7 10.5-.44 1.5.17 1.75 4.05 1.75H405zm-51.02-12.75c0-.7-.64-3.5-1.4-6.25l-1.4-5-.1 6.25c-.06 4.93.24 6.25 1.42 6.25.83 0 1.5-.56 1.48-1.25zm50.93-5V72.5l-1.4 5c-1.7 6.4-1.7 7.5.1 7.5 1.2 0 1.5-1.32 1.4-6.25z"/><path fill="#030303" d="M52.1 164.74c-5.05-2.6-6.57-6.16-6.94-16.2l-.35-9.35-8.8-.4c-7-.3-9.2-.8-11-2.4-4.5-4-4.9-7-4.9-31.5 0-25.1.6-28.4 5.5-31.6C28 71.8 28 71.7 28 57.8c0-23.1 1.15-24.3 23.55-24.3 10.67 0 15.87.4 17.63 1.33C72.04 36.36 75 40.9 75 43.8c0 1.8.84 2 10.1 2.37l10.13.4 3.38 3.7 3.4 3.7v23.8l7.6.4c7.3.36 7.8.53 11 4.1l3.4 3.7v25.6c0 21.92-.2 26.02-1.6 28.4-3 5.06-6 6.03-18.7 6.03H92v5.6c0 6.35-1.87 10.3-6.04 12.76-2.22 1.32-5.6 1.64-17.1 1.63-9.4-.1-15.2-.5-16.76-1.3zm34.5-4.84l2.4-2.25V106.2l-3.08-2.6c-3-2.5-3.47-2.58-17.03-2.58-16 0-18.2.78-19.9 6.85-1.4 4.8-1.3 43.58 0 48.4 1.6 5.66 3.6 6.28 20.5 6.07 13.7-.17 14.8-.33 17-2.42zm31.48-19.82l2.92-2.93v-50.3l-2.97-2.98c-2.76-2.75-3.43-2.95-9.25-2.67l-6.28.3-.28 12.45c-.26 11.4-.5 12.7-2.7 15.63-1.35 1.75-3.6 3.47-5 3.83l-2.56.7.1 13.7c.06 7.6.32 14.1.58 14.5.26.4 5.44.8 11.5.8 10.84 0 11.06 0 13.94-2.9zm-72.9-19c.28-13.3.55-15.25 2.4-17.76 2.83-3.8 6.96-5.66 12.13-5.47l4.3.17V88.6c0-9.3 0-9.46-3-12-3-2.53-3.5-2.6-16.9-2.6s-13.9.08-16.9 2.6L24 79.17v51.55l2.64 2.63c2.4 2.4 3.34 2.64 10.42 2.64h7.8zM97.72 107c.88-1.1 1.23-8.44 1.25-26.8L99 54.9l-2.4-2.38c-3.14-3.15-7.25-3.8-21.07-3.37-11 .35-11.62.48-14.26 3.12-2.45 2.46-2.8 3.62-3.1 10.6l-.37 7.84 3.4 2.2c4.92 3.1 5.96 5.8 6.14 15.8l.16 8.9 8.5.6c11.45.7 13.4 2.1 16.42 11.4.52 1.6.84 1.7 2.34.5.96-.7 2.3-2 2.96-2.8zM55 63.75c0-4.9.57-8.4 1.75-10.75 2-4 7.15-7 12-7 2.6 0 3.25-.4 3.25-2.05 0-1.12-1.1-3.15-2.45-4.5-2.4-2.4-2.85-2.45-17.7-2.45C31.2 37 32 36.23 32 56.17V71h23v-7.25zm451.5 100.3c-3.34-1.36-7.44-6.12-8.56-9.94-.7-2.4-.95-22.9-.75-61.6.3-64.5-.1-60.5 7.1-65.7 3.1-2.2 3.2-2.2 46.3-2.2 42 0 43.2.1 45.9 2.1 1.5 1.2 3.7 3.3 4.8 4.9 2 2.7 2 3.7 2 63.4v60.7l-2.4 3.2c-4.8 6.3-4.6 6.3-50.8 6.3-23 0-42.8-.4-43.9-.9zM593 154c1.95-1.95 2-3.33 2-58.78 0-49.77-.2-57.05-1.56-59L591.9 34h-41.13c-36.85 0-41.3.17-42.94 1.65-1.73 1.57-1.83 4.7-1.83 58.7v57.02l2.17 2.32 2.18 2.3h40.32c39 0 40.4-.1 42.33-2zm-50.32-11.54c-5.78-2.12-10.95-6.72-14.23-12.64-2.54-4.58-2.95-6.36-2.93-12.82.03-8.46 2-13.38 7.68-19.05 8.03-8.02 21.6-9.93 31.67-4.43 15.8 8.6 18.87 29.4 6.28 42.33-7.34 7.53-18.74 10.18-28.47 6.6zm21.82-3.9c8.62-5.06 13.12-13.82 12.2-23.8-1.7-18.8-23-28.97-38.42-18.36-2.63 1.8-6.13 5.45-7.78 8.1-2.64 4.27-3 5.74-3 12.42 0 6.48.4 8.26 2.77 12.3 5.18 8.8 13.23 13.07 23.44 12.42 4.5-.3 7.6-1.18 10.8-3.1zm-16.92-16.47c-2.62-2.9-1.75-8.2 1.67-10.1 2.47-1.4 3.03-1.4 5.5 0 5.5 3 3.46 11.9-2.75 11.9-1.48 0-3.47-.9-4.42-1.9zm7.85-2.3c1.32-1.9 1.34-2.5.18-4.3-.7-1.2-2.3-2.1-3.6-2.1-1.2 0-2.8.9-3.6 2-1.1 1.7-1.1 2.3.2 4.2.9 1.2 2.4 2.2 3.5 2.2s2.6-1 3.5-2.2zm-13.3-43.4c-2.02-1.7-3.3-4-3.86-6.8l-.83-4.2-8.1-.3c-6.98-.3-8.5-.7-10.74-2.7-1.43-1.4-2.6-2.9-2.6-3.5 0-.6 1.08.1 2.4 1.7 2.23 2.5 3.1 2.8 11.25 3.3l8.82.5.58 3.5c.74 4.4 2.5 7.6 4.9 8.9 2.52 1.3 33.6 1.3 36.1 0 3.52-1.9 4.95-6.4 4.95-15.4 0-8.1-.18-8.8-2.92-11.8l-2.92-3.3h-57l-2.6 2.4c-1.43 1.3-3 3.8-3.5 5.5-.48 1.7-.92 2.2-.97 1.2-.2-3.3 2.9-7.9 6.4-9.3 4.9-2 53-2 57.9 0 5 2.1 6.5 5.9 6.5 16.6 0 9-.1 9.2-3.4 12.5l-3.4 3.4h-17c-16.8 0-17.1-.1-20.1-2.6zM177.96 125c-.02-9.35-.03-22.18-.03-28.5 0-6.33 0-18.7.03-27.5l.04-16h18l.04 16.25c.03 8.94.02 25.8 0 37.5l-.06 21.25H242v14h-64l-.04-17zm94.55 15.25L267 125c-2.63-7.42-5.1-14.3-5.5-15.25-.63-1.6.15-1.75 8.7-1.75h9.45l1.74 5.5c.9 3.02 1.9 5.5 2.1 5.5.2 0 1.2-2.48 2.1-5.5l1.7-5.5h17.5l-3.4 9.25c-1.9 5.1-4.6 12.74-6.1 17l-2.7 7.75H283c-8.38 0-9.88-.25-10.48-1.75zM334 97V52h27.5l4.14 15.75c2.28 8.66 5.57 20.92 7.3 27.25 1.73 6.32 3.4 12.85 3.7 14.5.87 4.72 1.9 4.9 2.64.48.23-1.36.7-3.16 1.03-3.98.5-1.23 2.3-7.8 5.3-20 .2-.83 2.3-8.8 4.7-17.75L394.5 52H422l.04 16.5c.02 9.07.03 21.68.03 28 0 6.33 0 19.15-.03 28.5l-.04 17h-17l-.07-35.25c-.06-32.04-.2-34.84-1.5-30.75-.78 2.48-1.64 5.85-1.92 7.5-.2 1.65-1.5 7.05-2.9 12-1.3 4.95-4.5 17.44-7.1 27.75L386.8 142h-8.87c-4.9 0-8.86-.24-8.86-.52 0-.9-13.04-52.9-13.66-54.48-.3-.82-.7-2.63-.9-4-.2-1.38-1-4.53-1.8-7-1.5-4.92-1.4-8.9-1.6 48.75L351 142h-17zm-81.44-12.9c-.3-.5-2.76-7.13-5.46-14.75s-5.24-14.65-5.63-15.64c-.66-1.6.02-1.7 9.1-1.5l9.83.3 5.24 15c2.9 8.3 5.28 15.6 5.3 16.3.07 1.5-17.47 1.8-18.38.4zm48.1-15.56l5.5-16.54h18.75l-4.5 12.75L314.6 81l-1.25 3.5-9.07.3-9.1.27z"/></svg>